<svg xmlns="http://www.w3.org/2000/svg" viewBox="0 0 157.93 157.93"><defs><style>.cls-1{fill:#1ca6d3;}.cls-2{fill:#d0f4df;}</style></defs><title>Asset 195</title><g id="Layer_2" data-name="Layer 2"><g id="Slider"><circle class="cls-1" cx="78.97" cy="78.97" r="78.97"/><path class="cls-2" d="M107.7,109.3l25.5-28a5.12,5.12,0,0,0,0-7.07l-25.5-28c-4.35-4.76-11.4,2.32-7.07,7.07l25.5,28V74.28l-25.5,28c-4.33,4.75,2.72,11.84,7.07,7.07Z"/><path class="cls-2" d="M51.76,46.32l-25.5,28a5.12,5.12,0,0,0,0,7.07l25.5,28c4.35,4.76,11.4-2.32,7.07-7.07l-25.5-28v7.07l25.5-28c4.33-4.75-2.72-11.84-7.07-7.07Z"/></g></g></svg>