<svg xmlns="http://www.w3.org/2000/svg" viewBox="0 0 157.93 157.93"><defs><style>.cls-1{fill:#267893;}.cls-2{fill:#d0f4df;}</style></defs><title>Asset 193</title><g id="Layer_2" data-name="Layer 2"><g id="Slider"><circle class="cls-1" cx="78.97" cy="78.97" r="78.97"/><path class="cls-2" d="M109.3,50.23l-28-25.5a5.12,5.12,0,0,0-7.07,0l-28,25.5c-4.76,4.35,2.32,11.4,7.07,7.07l28-25.5H74.28l28,25.5c4.75,4.33,11.84-2.72,7.07-7.07Z"/><path class="cls-2" d="M46.32,106.17l28,25.5a5.12,5.12,0,0,0,7.07,0l28-25.5c4.76-4.35-2.32-11.4-7.07-7.07l-28,25.5h7.07l-28-25.5c-4.75-4.33-11.84,2.72-7.07,7.07Z"/></g></g></svg>