<svg xmlns="http://www.w3.org/2000/svg" viewBox="0 0 94.78 216.42"><defs><style>.cls-1,.cls-2{fill:#002a3d;}.cls-1{stroke:#ec549c;stroke-miterlimit:10;stroke-width:4px;}</style></defs><title>Asset 56</title><g id="Layer_2" data-name="Layer 2"><g id="L_Humerus" data-name="L Humerus"><path class="cls-1" d="M92.68,16.3c0-.09,0-.19,0-.28s-.08-.42-.14-.63l-.08-.3c-.06-.2-.13-.39-.21-.58l-.1-.25a6.32,6.32,0,0,0-.4-.76c-.23-.37-.52-.68-.73-1C83.75-.37,67.8,2.21,67.8,2.21,56,4.88,55.35,17.14,55.35,17.14L2.6,190.13s0,.16-.11.46-.07.33-.11.55A22.66,22.66,0,0,0,2,193.79c0,.36,0,.74,0,1.14s0,.81,0,1.24a19.22,19.22,0,0,0,.3,2.67q.06.34.14.69A15,15,0,0,0,3.7,203q.17.34.37.68a12.94,12.94,0,0,0,2.59,3.16A31.75,31.75,0,0,0,18.28,213l1.18.34a28.57,28.57,0,0,0,7.88,1c4.46-.11,7.81-1.73,8.1-5.34V209q.15-1.82.31-3.63c0-.4.07-.79.11-1.19q.12-1.27.25-2.53.07-.68.14-1.35.13-1.22.27-2.44c0-.43.1-.87.15-1.3q.16-1.41.34-2.82l.11-.87q.23-1.84.48-3.68l.12-.88q.19-1.41.4-2.81l.19-1.27q.18-1.24.37-2.48l.2-1.28q.2-1.31.42-2.61l.18-1.08q.61-3.67,1.27-7.32l.19-1q.24-1.32.49-2.63l.23-1.18q.25-1.28.5-2.56l.22-1.11q.3-1.48.6-3l.13-.64q.38-1.82.77-3.63l.14-.62q.32-1.48.65-3l.24-1q.29-1.29.59-2.57l.24-1q.32-1.37.64-2.72l.19-.8q.85-3.54,1.73-7l.2-.79.68-2.66.25-1,.68-2.56.23-.87q.41-1.53.82-3l.08-.28q.47-1.73,1-3.44l.11-.38.82-2.9.24-.83.71-2.47.25-.86.76-2.58.18-.62q1-3.22,1.93-6.34l.2-.64.76-2.42.26-.81.73-2.3.23-.73.87-2.69.07-.23,1-3,.1-.31.83-2.49.26-.76.69-2,.27-.8L64.17,82l.19-.57q.93-2.67,1.83-5.23l.26-.73.64-1.78.29-.81.6-1.66.29-.79.66-1.8.2-.55L70,65.83l.25-.68.56-1.49.32-.86.49-1.29.32-.84.47-1.22.32-.83.54-1.38.45-1.16L74.12,55l.35-.9.34-.86.37-.94.28-.71.39-1,.21-.52q.73-1.81,1.39-3.42l.11-.27.42-1,.09-.23.43-1h0c1-1,2.09-2.2,3.12-3.43l0,0,.74-.9.06-.08c1-1.21,1.93-2.48,2.84-3.8l.19-.28.55-.82.22-.34.52-.81.18-.28q.47-.75.91-1.51l.26-.45.38-.67.31-.57.33-.63.32-.63.29-.58.39-.84.27-.61c.14-.31.27-.61.39-.92l.19-.47.29-.75.17-.47c.09-.26.18-.51.26-.77l.13-.41c.11-.36.21-.72.3-1.08l0-.11c.09-.36.17-.72.24-1.08,0-.12,0-.23.06-.35s.09-.51.12-.75,0-.25,0-.38,0-.49.06-.73,0-.22,0-.32A10.89,10.89,0,0,0,92.68,16.3Z"/><path class="cls-2" d="M64.68,19.11c0,1.33-1.08-.58-2.42-.58s-2.42,1.92-2.42.58a2.42,2.42,0,1,1,4.83,0Z"/><path class="cls-2" d="M85.2,19c0,1.33-1.08,0-2.42,0s-2.42,1.33-2.42,0a2.42,2.42,0,1,1,4.83,0Z"/><path class="cls-2" d="M65.16,24.94s6.88,8.74,16.63,0C72,31,65.16,24.94,65.16,24.94Z"/></g></g></svg>