<svg xmlns="http://www.w3.org/2000/svg" viewBox="0 0 94.78 216.42"><defs><style>.cls-1,.cls-2{fill:#002a3d;}.cls-1{stroke:#ec549c;stroke-miterlimit:10;stroke-width:4px;}</style></defs><title>Asset 57</title><g id="Layer_2" data-name="Layer 2"><g id="R_Humerus" data-name="R Humerus"><path class="cls-1" d="M13.1,40.61l-.74-.9-.06-.08c-1-1.21-1.93-2.48-2.84-3.8l-.19-.28-.55-.82-.22-.34L8,33.59l-.18-.28q-.47-.75-.91-1.51l-.26-.45-.37-.67-.31-.57-.33-.63-.32-.63L5,28.27l-.39-.84-.27-.61c-.14-.31-.27-.61-.39-.92l-.19-.47-.29-.75-.17-.47c-.09-.26-.18-.51-.26-.77L2.89,23c-.11-.36-.21-.72-.3-1.08l0-.11c-.09-.36-.17-.72-.24-1.08,0-.12,0-.23-.06-.35s-.09-.51-.12-.75,0-.25,0-.38,0-.49-.06-.73,0-.22,0-.32a10.89,10.89,0,0,1,.1-1.95c0-.09,0-.19,0-.28s.08-.42.14-.63l.08-.3c.06-.2.13-.39.21-.58l.1-.25a6.32,6.32,0,0,1,.4-.76c.23-.37.52-.68.73-1C11-.37,27,2.21,27,2.21,38.78,4.88,39.43,17.14,39.43,17.14l52.75,173s2.9,10.52-4.05,16.72C79.28,214.74,60,218,59.33,209.07c-5.62-69.95-33.21-141.32-43.07-165-1-1-2.09-2.2-3.12-3.43Z"/><path class="cls-2" d="M15.07,23.14c0,1.33-1.08-.58-2.42-.58s-2.42,1.92-2.42.58a2.42,2.42,0,1,1,4.83,0Z"/><path class="cls-2" d="M35.59,23.08c0,1.33-1.08,0-2.42,0s-2.42,1.33-2.42,0a2.42,2.42,0,1,1,4.83,0Z"/><path class="cls-2" d="M15.55,29s6.88,8.74,16.63,0C22.43,35.06,15.55,29,15.55,29Z"/></g></g></svg>