<svg xmlns="http://www.w3.org/2000/svg" viewBox="0 0 138.59 31.12"><defs><style>.cls-1,.cls-2{fill:#002a3d;}.cls-1{stroke:#ec549c;stroke-miterlimit:10;stroke-width:4px;}</style></defs><title>Asset 53</title><g id="Layer_2" data-name="Layer 2"><g id="L_Collar_Bone" data-name="L Collar Bone"><path class="cls-1" d="M136.54,24.84c-.24-1.15-.52-2.45-16-9.54a153.43,153.43,0,0,0-16.07-6.12A160.29,160.29,0,0,0,87.65,4.9,160.66,160.66,0,0,0,70.42,2.53a156.52,156.52,0,0,0-35,1.07L29,4.67,22.53,6,18.37,7.07c-2.23.53-4.43,1.2-6.55,1.85L10,9.49A11.63,11.63,0,0,0,5.4,12.22l-.5.47c-1.19,1.09-3,2.73-2.9,5.47a11.6,11.6,0,0,0,2.53,6.11,8.22,8.22,0,0,0,5.57,2.23l.61.06a13,13,0,0,0,4.85-.46l2.29-.7c1.7-.53,3.45-1.07,5.21-1.49l3.74-1,5.7-1.28,5.77-1.07a166.44,166.44,0,0,1,31.18-2.11,173.69,173.69,0,0,1,31.3,3.75c5.28,1.1,10.45,2.43,15.37,4,2.46.74,5,1.59,7.51,2.51h0a11.08,11.08,0,0,0,3.4.41c3.21,0,7.24-.72,8.62-1.93A2.44,2.44,0,0,0,136.54,24.84Z"/><path class="cls-2" d="M26.16,12.5c.26,1.31-1.18-.36-2.48-.09s-2,2.36-2.25,1.05a2.42,2.42,0,0,1,4.74-1Z"/><path class="cls-2" d="M67,8.82c-.09,1.33-1-1-2.35-1.07s-2.56,2.08-2.47.75A2.42,2.42,0,1,1,67,8.82Z"/><path class="cls-2" d="M37,14.41s8.48,7.21,16.3-3.3C45,19,37,14.41,37,14.41Z"/></g></g></svg>