<svg xmlns="http://www.w3.org/2000/svg" viewBox="0 0 60.92 551.4"><defs><style>.cls-1{fill:#002a3d;stroke:#f8c1db;stroke-miterlimit:10;stroke-width:4px;}</style></defs><title>Asset 52</title><g id="Layer_2" data-name="Layer 2"><g id="Spine"><path class="cls-1" d="M52.92,86.72a6,6,0,0,0,6-6v-.5a6,6,0,0,0-6-6H45.72V63.32H49a6,6,0,0,0,6-6v-.5a6,6,0,0,0-6-6H45.72V39.91h4.2a6,6,0,0,0,6-6v-.5a6,6,0,0,0-6-6h-4.2V14.85c0-.12,0-.24,0-.35h4.22a6,6,0,0,0,6-6V8a6,6,0,0,0-6-6H11A6,6,0,0,0,5,8v.5a6,6,0,0,0,6,6h4.22c0,.12,0,.23,0,.35V27.41H11a6,6,0,0,0-6,6v.5a6,6,0,0,0,6,6h4.2V50.82H11.92a6,6,0,0,0-6,6v.5a6,6,0,0,0,6,6h3.29V74.22H8a6,6,0,0,0-6,6v.5a6,6,0,0,0,6,6h7.21V98.48H8a6,6,0,0,0-6,6v.5a6,6,0,0,0,6,6h7.21v14H8a6,6,0,0,0-6,6v6.83a6,6,0,0,0,6,6h7.21v14.92H8a6,6,0,0,0-6,6v11.11a6,6,0,0,0,6,6h7.21V193H8a6,6,0,0,0-6,6v11.11a6,6,0,0,0,6,6h7.21v13.52H8a6,6,0,0,0-6,6v9.44a6,6,0,0,0,6,6h7.21v13.59H8a6,6,0,0,0-6,6v11.11a6,6,0,0,0,6,6h7.21v14.68H8a6,6,0,0,0-6,6v11.11a6,6,0,0,0,6,6h7.21v15H8a6,6,0,0,0-6,6v11.11a6,6,0,0,0,6,6h7.21V376.2H8a6,6,0,0,0-6,6v11.11a6,6,0,0,0,6,6h7.21V415H8a6,6,0,0,0-6,6v11.11a6,6,0,0,0,6,6h7.21v13.62H8a6,6,0,0,0-6,6v11.11a6,6,0,0,0,6,6h7.21v12.3H8a6,6,0,0,0-6,6v5a6,6,0,0,0,6,6h7.21v8.64a29.3,29.3,0,0,0,2.7,12.31l10.64,23a2.28,2.28,0,0,0,4.19,0L43.1,525a29.66,29.66,0,0,0,2.62-12.2v-8.71h7.21a6,6,0,0,0,6-6v-5a6,6,0,0,0-6-6H45.72v-12.3h7.21a6,6,0,0,0,6-6V457.75a6,6,0,0,0-6-6H45.72V438.13h7.21a6,6,0,0,0,6-6V421a6,6,0,0,0-6-6H45.72V399.31h7.21a6,6,0,0,0,6-6V382.2a6,6,0,0,0-6-6H45.72V363.62h7.21a6,6,0,0,0,6-6V346.5a6,6,0,0,0-6-6H45.72v-15h7.21a6,6,0,0,0,6-6V308.43a6,6,0,0,0-6-6H45.72V287.75h7.21a6,6,0,0,0,6-6V270.64a6,6,0,0,0-6-6H45.72V251.05h7.21a6,6,0,0,0,6-6v-9.44a6,6,0,0,0-6-6H45.72V216.09h7.21a6,6,0,0,0,6-6V199a6,6,0,0,0-6-6H45.72v-11.1h7.21a6,6,0,0,0,6-6V164.76a6,6,0,0,0-6-6H45.72V143.84h7.21a6,6,0,0,0,6-6V131a6,6,0,0,0-6-6H45.72V111h7.21a6,6,0,0,0,6-6v-.5a6,6,0,0,0-6-6H45.72V86.72Z"/></g></g></svg>