<svg xmlns="http://www.w3.org/2000/svg" viewBox="0 0 281.31 159.59"><defs><style>.cls-1{fill:#002a3d;stroke:#f17db4;stroke-miterlimit:10;stroke-width:4px;}</style></defs><title>Asset 60</title><g id="Layer_2" data-name="Layer 2"><g id="Hip"><path class="cls-1" d="M258.23,28C216.6-22.93,180,28,180,28l-37.5.23L103.49,28S69.56-24,25.31,19,13.4,87.87,13.4,87.87s7.43,28.06,15.32,32.23c10,5.28,39.14-6.14,42.55,15.35,3.19,20.14,30.2,34.73,69.14,2.3,2.6-2.16-1.76-4.74,1-7.33-56.47-16-23.89-95,1.22-94.8,24.67.17,53.31,78.8.3,94.8,2.22,2.08-.77,5.53,1.34,7.33,39.89,34.1,64.77,18.1,68-2.3,3.4-21.48,32.55-10.07,42.55-15.35,7.89-4.17,15.32-32.23,15.32-32.23S297.25,75.78,258.23,28ZM122,135.23c0,6.08-15.28,11-23,11s-14-4.92-14-11,6.27-11,14-11S122,129.15,122,135.23Zm62.63,11c-7.73,0-22-4.92-22-11s14.27-11,22-11,14,4.92,14,11S192.32,146.23,184.58,146.23Z"/></g></g></svg>