<svg xmlns="http://www.w3.org/2000/svg" viewBox="0 0 67.71 271.05"><defs><style>.cls-1{fill:#002a3d;stroke:#f17db4;stroke-miterlimit:10;stroke-width:4px;}</style></defs><title>Asset 66</title><g id="Layer_2" data-name="Layer 2"><g id="R_Tibia" data-name="R Tibia"><path class="cls-1" d="M63.67,64.82A225.21,225.21,0,0,0,56.84,33,158.24,158.24,0,0,0,44.53,2.93l0,0c-.41-1.47-.9-1.28-1.48.89C36,30.34,3.26,14.29,3.26,14.29S-3.44,288.75,14.07,267.93c12.23-14.55,21.08-5.42,25.52-9.36A14.71,14.71,0,0,0,44.05,244c.45-1.3.85-2.53,1.14-3.57,1.42-5.16,2.71-10.36,4-15.56q3.77-15.62,6.79-31.42T61,161.69c1.35-10.66,2.46-21.36,3.2-32.11s1.32-21.52,1.46-32.35A230.76,230.76,0,0,0,63.67,64.82Zm-8.21,64.36c-.24,10.58-.84,21.17-1.68,31.75s-1.88,21.16-3.24,31.7c-1.66,13.48-3.74,17.91-6.25,31.28.83-40.18,3.47-165.14,1.31-206.26,1.37,7,2.63,10,3.7,17C50.75,45.11,51.86,55.55,52.74,66,54.16,86.94,56,108,55.46,129.18Z"/></g></g></svg>