<svg xmlns="http://www.w3.org/2000/svg" viewBox="0 0 67.71 271.05"><defs><style>.cls-1{fill:#002a3d;stroke:#f17db4;stroke-miterlimit:10;stroke-width:4px;}</style></defs><title>Asset 65</title><g id="Layer_2" data-name="Layer 2"><g id="L_Tibia" data-name="L Tibia"><path class="cls-1" d="M64.45,14.29S31.74,30.34,24.71,3.84c-.58-2.18-1.07-2.36-1.48-.89l0,0A158.21,158.21,0,0,0,10.87,33,225.21,225.21,0,0,0,4,64.82,230.76,230.76,0,0,0,2,97.24c.14,10.82.76,21.6,1.46,32.35S5.31,151,6.66,161.69s3.11,21.25,5.08,31.8,4.28,21,6.79,31.42c1.28,5.2,2.57,10.39,4,15.56.29,1,.69,2.26,1.14,3.57a14.71,14.71,0,0,0,4.46,14.54c4.44,3.94,13.29-5.2,25.52,9.36C71.15,288.75,64.45,14.29,64.45,14.29ZM17.18,192.63q-2-15.82-3.24-31.7c-.84-10.58-1.45-21.17-1.68-31.75C11.75,108,13.55,86.94,15,66c.88-10.46,2-20.91,3.45-31.35,1.07-7,2.33-11,3.7-18C20,57.78,22.6,183.74,23.43,223.92,20.92,210.55,18.84,206.11,17.18,192.63Z"/></g></g></svg>