<svg xmlns="http://www.w3.org/2000/svg" viewBox="0 0 67.71 152.61"><defs><style>.cls-1{fill:#002a3d;stroke:#f5a4cb;stroke-miterlimit:10;stroke-width:4px;}</style></defs><title>Asset 58</title><g id="Layer_2" data-name="Layer 2"><g id="L_Forearm_Bone" data-name="L Forearm Bone"><path class="cls-1" d="M64.91,13.58C58.91,9.7,50.41,7.71,46.49,7,41.79.87,34.21-.51,32,8,32,8-.78,125.55,2.19,135.9c2,7,10.07,13,15.36,13.87l.19.1,0-.07c2.45.32,4.25-.53,4.49-3q.49-5.19,1-10.23C37,103.12,71.36,17.77,64.91,13.58ZM40,40.34c-3.85,27.91-10.79,75.93-16.76,96.25C27.72,95.54,34.11,54.09,40,40.34Z"/></g></g></svg>