<svg xmlns="http://www.w3.org/2000/svg" viewBox="0 0 76.93 75.27"><defs><style>.cls-1,.cls-2{fill:#002a3d;}.cls-1{stroke:#f5a6cb;stroke-miterlimit:10;stroke-width:4px;}</style></defs><title>Asset 73</title><g id="Layer_2" data-name="Layer 2"><g id="L_Ankle_Bone" data-name="L Ankle Bone"><path class="cls-1" d="M66,19.77s16.26,40.5,5,49.5-59.76,0-59.76,0l-9-43.5S26.82,6.36,36.59,3.09C44.6.41,61,1.54,66,19.77Z"/><path class="cls-2" d="M51.24,33c0,1.33,1.08-.58,2.42-.58s2.42,1.92,2.42.58a2.42,2.42,0,0,0-4.83,0Z"/><path class="cls-2" d="M21.69,33c0,1.33,1.08-1,2.42-1s2.42,2.34,2.42,1a2.42,2.42,0,1,0-4.83,0Z"/><path class="cls-2" d="M47.77,46.82s-6.88,8.74-16.63,0C40.89,52.92,47.77,46.82,47.77,46.82Z"/></g></g></svg>