<svg xmlns="http://www.w3.org/2000/svg" viewBox="0 0 293.71 236.61"><defs><style>.cls-1{fill:#002a3d;stroke:#f07cb3;stroke-miterlimit:10;stroke-width:4px;}</style></defs><title>Asset 61</title><g id="Layer_2" data-name="Layer 2"><g id="Rib_Cage" data-name="Rib Cage"><path class="cls-1" d="M38.86,62.2h-.5a7.14,7.14,0,0,1-1,0h0A2.93,2.93,0,0,0,38.86,62.2Z"/><path class="cls-1" d="M256.18,60.88l-.17.07.18-.06Z"/><path class="cls-1" d="M272.66,115.45l-1.08-.29c1.2-.4,2.38-.81,3.56-1.27,5.53-2.15,11.7-4.79,14.75-10.24,6.5-11.61-5.8-19.25-15.16-22.1a80.83,80.83,0,0,0-8.86-2.16,88.69,88.69,0,0,0,11.37-3.93c5.31-2.27,11.22-5.63,12.91-11.61,3.21-11.31-8.05-17.14-17-19.73a79.87,79.87,0,0,0-20-3.2c9.47-2.59,25-7.21,25-19.27,0-9.69-10-14-17.89-16.23-17.77-5.06-36.63-3-54.88-2.91L99.6,3.24l-39.38.27A101.43,101.43,0,0,0,42.77,4.63C36,5.83,28.62,7.35,22.74,11c-10.19,6.38-8.82,18.57.87,24.63a59.82,59.82,0,0,0,15.71,6.61,68.89,68.89,0,0,0-8.82.91c-7.68,1.34-17,3-23,8.47C3.73,55.11,1.77,60.11,3.33,65.2c1.84,6,7.5,9.3,12.92,11.61a101,101,0,0,0,11.24,4c-7.31,1.34-15.8,3.22-21.2,8.39a13.05,13.05,0,0,0-2.6,16c3.09,5.32,9.2,7.93,14.66,10,1.11.43,2.23.83,3.36,1.21a37.79,37.79,0,0,0-12,5.07c-4.87,3.35-8,8.89-6.27,14.92,1.61,5.61,6.74,9.05,11.78,11.3a103.11,103.11,0,0,0,16.58,5.66c-5.64,1.06-11.37,2.54-16.35,5.25-10.65,5.79-11,18.2-1,24.92,7.65,5.16,17.36,7.76,26.94,9.4-11,3.47-22.7,10.48-15.54,22.67,2.41,4.11,6.76,6.71,11,8.59a115.1,115.1,0,0,0,21.87,7.09,128.22,128.22,0,0,0,33.27,3.18c1.64-.07,3.3-.17,4.93-.39,5.35-.72,10-4.08,10-10,0-4.85-4.61-10.72-10-10-13.07,1.75-28,.24-41.15-3.87.42,0,.84,0,1.24,0l9.18-.07,32-.23,87.48-.64L221,209c4.63,0,9.72.46,14.5.19h0a108.62,108.62,0,0,1-19.43,3.6,89.58,89.58,0,0,1-19.46,0c-5.36-.72-10,5.11-10,10,0,6,4.62,9.28,10,10,19.71,2.64,42.14-1.91,60.07-9.89,8.56-3.81,16.73-12.32,10.82-22-3.13-5.15-9.34-7.71-15.2-9.35,3.07-.64,6.11-1.35,9.1-2.17,9.84-2.7,28.43-8.43,24.91-22.36-2.21-8.74-12.3-12-20-13.88-1.69-.42-3.39-.76-5.09-1.07,10.52-2.19,26-6.12,28.94-17.11C293.17,123.64,281.39,117.94,272.66,115.45Zm-72.48,21c-1.58-.06-3.15-.13-4.72-.24-5.39-.37-10,4.86-10,10a9.6,9.6,0,0,0,1.26,4.83l-79.53.51a9.61,9.61,0,0,0,.84-4c0-5.12-4.58-10.38-10-10-17.65,1.22-36,.91-53.46-2.09-2.67-.46-5.34-1-8-1.61l.87-.15-.09,0,.09,0,.91-.15c1.69-.28,6.5.07,9.46.05l38.31-.24,108.95-.67,43.34-.27,12.91-.08c.81,0,5.42.13,5.77.19C238.71,137.1,218.82,137.17,200.18,136.41Zm-162.72-37c2.92.16,5.91,0,8.83-.06l38.51-.24L196,98.43l43.83-.27,12.84-.08c.94,0,4,.26,4.62.33-19.09,4.55-39.62,4.53-59,3.77-1.62-.06-3.23-.13-4.85-.24-5.4-.35-10,4.85-10,10,0,.26,0,.52,0,.77l-73.47.45c-.07-5.1-4.62-10.22-10-9.87a256.7,256.7,0,0,1-53.21-1.63c-3.66-.53-7.32-1.19-10.93-2C36.41,99.58,36.94,99.5,37.46,99.41Zm217.47,32.72M58.36,23.53l33.88-.24,97.61-.68,38.67-.27,11.32-.08c.89,0,1.83.07,2.73,0,.78.19,1.58.36,2.37.51-15.57,4.11-33.56,4.31-49,3.64-1.61-.07-3.23-.15-4.83-.28-5.39-.45-10,4.92-10,10a9.51,9.51,0,0,0,1.47,5.16l-71.1.44a9.55,9.55,0,0,0,1-4.25c0-5.06-4.59-10.45-10-10-17.06,1.42-35,.64-51.65-3.2l-1.89-.45c.61-.07,1.22-.15,1.83-.25C53.21,23.79,55.84,23.55,58.36,23.53ZM38,62.11c1.76-.29,6.59,0,9.45,0l38.17-.24,109.53-.68,43.69-.27,12.8-.08c.87,0,3.31.41,4.37.08-1.1.27-3.39-.66-.73-.22l.91.16.1,0-.09,0,1,.17c-18.7,4.66-38.94,4.68-57.9,3.92-1.57-.06-3.13-.13-4.7-.24-5.39-.37-10,4.86-10,10a9.73,9.73,0,0,0,.74,3.77L108.44,79a9.76,9.76,0,0,0,.43-2.88c0-5.13-4.58-10.37-10-10-17.81,1.21-36.34.93-53.95-2-2.84-.48-5.67-1-8.47-1.68l.83-.14-.08,0a.4.4,0,0,0,.13,0Zm67,127.75a9.6,9.6,0,0,0,.87-4c0-5.08-4.59-10.43-10-10-17.88,1.42-36.68.71-54.17-3.34l-1.41-.35.34-.06.76-.12a7.87,7.87,0,0,0,1.48,0c3.05.06,6.12,0,9.18-.06l36.79-.24L192.76,171l41.5-.27,12.71-.08c1.23,0,5.78.09,6.09.14-16.12,4.1-33.89,4.7-50.47,4-1.66-.07-3.32-.15-5-.28-5.39-.43-10,4.9-10,10a9.59,9.59,0,0,0,1.22,4.77Z"/><path class="cls-1" d="M38.68,133.62a6.76,6.76,0,0,1-1.23,0h0A3.13,3.13,0,0,0,38.68,133.62Z"/></g></g></svg>