<svg xmlns="http://www.w3.org/2000/svg" viewBox="0 0 76.93 75.27"><defs><style>.cls-1,.cls-2{fill:#002a3d;}.cls-1{stroke:#f5a6cb;stroke-miterlimit:10;stroke-width:4px;}</style></defs><title>Asset 74</title><g id="Layer_2" data-name="Layer 2"><g id="R_Ankle_Bone" data-name="R Ankle Bone"><path class="cls-1" d="M11,19.77s-16.26,40.5-5,49.5,59.76,0,59.76,0l9-43.5S50.11,6.36,40.35,3.09C32.34.41,15.89,1.54,11,19.77Z"/><path class="cls-2" d="M25.69,33c0,1.33-1.08-.58-2.42-.58s-2.42,1.92-2.42.58a2.42,2.42,0,0,1,4.83,0Z"/><path class="cls-2" d="M55.24,33c0,1.33-1.08,0-2.42,0s-2.42,1.33-2.42,0a2.42,2.42,0,0,1,4.83,0Z"/><path class="cls-2" d="M29.17,46.82s6.88,8.74,16.63,0C36,52.92,29.17,46.82,29.17,46.82Z"/></g></g></svg>