<svg xmlns="http://www.w3.org/2000/svg" viewBox="0 0 259.92 288.43"><defs><style>.cls-1,.cls-2{fill:#002a3d;}.cls-1{stroke:#ec549c;stroke-miterlimit:10;stroke-width:4px;}</style></defs><title>Asset 51</title><g id="Layer_2" data-name="Layer 2"><g id="Skull"><path class="cls-1" d="M244.75,200.75c15.35-17.53,13-53.39,13-75.13C257.8,54,200.71,2,130.28,2S2.77,54,2.77,125.62c0,22.06-5.54,56.89,13.06,76.69C90.63,281.93,195.76,256.71,244.75,200.75Z"/><path class="cls-2" d="M93.06,153.27C87.4,174.54,70.8,171.1,56,166.58S38.09,153.88,39.4,136.9C41.1,115,61.66,102,76.48,106.57S98.72,132,93.06,153.27Z"/><path class="cls-2" d="M165,149.27c5.66,21.27,22.26,17.84,37.08,13.32s17.89-12.7,16.58-29.69C217,111,196.43,98,181.61,102.57S159.37,128,165,149.27Z"/><path class="cls-2" d="M131,168c-6.13,0-15.36,17.08-12.26,22.75,1.37,2.51,7.19-1,11.82-.78,5.81.29,10.65,3.7,12.71.78C147,185.48,137.16,168,131,168Z"/><path class="cls-1" d="M55.44,239.28s67.4,50.47,148,0C191.29,291.75,90.63,311.75,55.44,239.28Z"/></g></g></svg>