<svg xmlns="http://www.w3.org/2000/svg" viewBox="0 0 138.59 31.12"><defs><style>.cls-1{fill:#002a3d;stroke:#ec549c;stroke-miterlimit:10;stroke-width:4px;}</style></defs><title>Asset 55</title><g id="Layer_2" data-name="Layer 2"><g id="R_Collar_Bone" data-name="R Collar Bone"><path class="cls-1" d="M133.68,12.68l-.53-.5a11.59,11.59,0,0,0-4.54-2.7l-1.85-.56c-2.12-.65-4.32-1.32-6.52-1.84L116,6l-6.43-1.34L103.1,3.59A156.51,156.51,0,0,0,68.17,2.53a152.74,152.74,0,0,0-34,6.66,153.06,153.06,0,0,0-16.07,6.12C2.57,22.39,2.29,23.69,2,24.84a2.44,2.44,0,0,0,.84,2.34c1.38,1.21,5.42,1.93,8.62,1.93a11.08,11.08,0,0,0,3.4-.41h0c2.53-.92,5.05-1.77,7.53-2.52,4.91-1.53,10.08-2.86,15.36-4a173.69,173.69,0,0,1,31.3-3.75,166.29,166.29,0,0,1,31.13,2.1L106,21.63l5.71,1.28,3.85,1c1.73.42,3.48,1,5.17,1.49l2.35.72a12.91,12.91,0,0,0,4.8.44l.6-.06a8.22,8.22,0,0,0,5.58-2.23,11.6,11.6,0,0,0,2.53-6.11C136.68,15.41,134.88,13.77,133.68,12.68Z"/></g></g></svg>