<svg xmlns="http://www.w3.org/2000/svg" viewBox="0 0 132.67 62.43"><defs><style>.cls-1,.cls-2,.cls-3{fill:#002a3d;}.cls-1,.cls-2{stroke:#ec549c;stroke-miterlimit:10;}.cls-1{stroke-width:4px;}.cls-2{stroke-width:3px;}</style></defs><title>Asset 75</title><g id="Layer_2" data-name="Layer 2"><g id="R_Foot_Bone" data-name="R Foot Bone"><path class="cls-1" d="M9.81,2.74,82.19,30.89s-15.19,19-5.88,25-74-11.54-74-11.54Z"/><path class="cls-1" d="M125.37,45.36l-12-7.47S101.84,54.7,107.1,57c3.81,1.68,2.06-.33,16.64,3S125.37,45.36,125.37,45.36Z"/><path class="cls-2" d="M83.74,34s17.2-.64,20.7,3.25c3.18,3.55.77,16-3.09,18.82-4.67,3.37-20.17,1.57-22.76-3.58C76.43,48.25,83.74,34,83.74,34Z"/><path class="cls-3" d="M28.66,24c-.33,1.29-.91-1.83-2.2-2.16s-2.81,2.27-2.49,1A2.42,2.42,0,0,1,28.66,24Z"/><path class="cls-3" d="M47.21,29c-.33,1.29-1-2.27-2.34-2.61s-2.67,2.69-2.34,1.4A2.42,2.42,0,1,1,47.21,29Z"/><path class="cls-3" d="M25.82,35s5.51,9.67,16.44,2.46C31.72,42.07,25.82,35,25.82,35Z"/><path class="cls-3" d="M89.87,42c-.19.75-.52-.06-1.27-.25S87,42,87.15,41.27a1.4,1.4,0,0,1,2.71.69Z"/><path class="cls-3" d="M100.61,44.87c-.19.75-.61-.32-1.36-.51s-1.55.56-1.36-.19a1.4,1.4,0,0,1,2.71.7Z"/><path class="cls-3" d="M88.23,48.37s3.19,5.6,9.53,1.42C91.65,52.45,88.23,48.37,88.23,48.37Z"/><path class="cls-3" d="M114.93,47.52c-.19.75-.52-1.06-1.27-1.25s-1.63,1.31-1.44.56a1.4,1.4,0,0,1,2.71.69Z"/><path class="cls-3" d="M125.67,50.43c-.19.75-.15-1-.9-1.15s-2,1.19-1.81.45a1.4,1.4,0,0,1,2.71.7Z"/><path class="cls-3" d="M113.28,52.1s3.19,5.6,9.53,1.42A11.12,11.12,0,0,1,113.28,52.1Z"/></g></g></svg>