<svg xmlns="http://www.w3.org/2000/svg" viewBox="0 0 123.95 128.34"><defs><style>.cls-1{fill:#002a3d;stroke:#f5a4cb;stroke-miterlimit:10;stroke-width:4px;}</style></defs><title>Asset 80</title><g id="Layer_2" data-name="Layer 2"><g id="L_Finger_Bones_copy" data-name="L Finger Bones copy"><path class="cls-1" d="M43.82,9.81S37.8,1.48,35.16,2C28.73,3.35,19.83,20,19.83,23.36s11,5.33,11,5.33Z"/><path class="cls-1" d="M28.5,31.63s-4,15.73-8.67,17.06-10-6.53-10-6.53l8.33-13.47Z"/><path class="cls-1" d="M55.83,15.48S50.2,12,47.36,13.31C40.45,16.47,31.3,48.62,32.14,53.4s12.72,5.46,12.72,5.46Z"/><path class="cls-1" d="M41.67,63.26s-3.08,30.09-8.66,29A12.24,12.24,0,0,1,24.3,86l7-24.94Z"/><path class="cls-1" d="M17.16,52.69S5.16,66,2.49,65.36,8.83,46.84,8.83,46.84Z"/><path class="cls-1" d="M33.32,96.4s-7.9,16.11-10.64,16.2,1-19.54,1-19.54Z"/><path class="cls-1" d="M73.33,16.93s-5.08-2.79-7.69-1C59.27,20.43,55,56,56.53,61s13.38,3.62,13.38,3.62Z"/><path class="cls-1" d="M68.4,69.6s1.81,34-3.86,33.82c-6.51-.25-8.53-3-8.53-3l.83-31.2Z"/><path class="cls-1" d="M66.07,107.44s-5.42,18.36-8.13,18.89c-2.5.49-2.09-15.54-1.88-20.92Z"/><path class="cls-1" d="M79.11,16.64s8.57-4.15,8.69-1c.37,9.68,7.64,40.06,6.11,45s-11.38,3.62-11.38,3.62Z"/><path class="cls-1" d="M85,69.31s-1.81,34,3.86,33.82c6.51-.25,8.53-3,8.53-3L93.6,69Z"/><path class="cls-1" d="M87.37,107.15s5.42,18.36,8.13,18.89c2.5.49,2.09-15.54,1.88-20.92Z"/><path class="cls-1" d="M97.37,18.2s6.12-4,6.54-1.62c1.27,7.35,9.94,29.79,9.28,33.72s-8.31,3.93-8.31,3.93Z"/><path class="cls-1" d="M107.31,57.79s2.11,26.17,6.42,25.42c4.95-.86,6.21-3.13,6.21-3.13l-6.12-23.42Z"/><path class="cls-1" d="M113,86.44s6,13.46,8.14,13.59c2,.12,0-12.07-.71-16.16Z"/></g></g></svg>