<svg xmlns="http://www.w3.org/2000/svg" viewBox="0 0 123.95 128.34"><defs><style>.cls-1{fill:#002a3d;stroke:#f5a4cb;stroke-miterlimit:10;stroke-width:4px;}</style></defs><title>Asset 79</title><g id="Layer_2" data-name="Layer 2"><g id="R_Finger_Bones" data-name="R Finger Bones"><path class="cls-1" d="M80.13,9.81s6-8.33,8.66-7.79c6.43,1.32,15.33,18,15.33,21.33s-11,5.33-11,5.33Z"/><path class="cls-1" d="M95.46,31.63s4,15.73,8.67,17.06,10-6.53,10-6.53l-8.33-13.47Z"/><path class="cls-1" d="M68.13,15.48s5.63-3.47,8.46-2.17C83.5,16.47,92.65,48.62,91.81,53.4s-12.72,5.46-12.72,5.46Z"/><path class="cls-1" d="M82.28,63.26s3.08,30.09,8.66,29A12.24,12.24,0,0,0,99.66,86l-7-24.94Z"/><path class="cls-1" d="M106.79,52.69s12,13.33,14.67,12.67-6.33-18.52-6.33-18.52Z"/><path class="cls-1" d="M90.63,96.4s7.9,16.11,10.64,16.2-1-19.54-1-19.54Z"/><path class="cls-1" d="M50.62,16.93s5.08-2.79,7.69-1C64.68,20.43,69,56,67.42,61S54,64.58,54,64.58Z"/><path class="cls-1" d="M55.56,69.6s-1.81,34,3.86,33.82c6.51-.25,8.53-3,8.53-3l-.83-31.2Z"/><path class="cls-1" d="M57.88,107.44S63.3,125.8,66,126.33c2.5.49,2.09-15.54,1.88-20.92Z"/><path class="cls-1" d="M44.84,16.64s-8.57-4.15-8.69-1c-.37,9.68-7.64,40.06-6.11,45s11.38,3.62,11.38,3.62Z"/><path class="cls-1" d="M38.91,69.31s1.81,34-3.86,33.82c-6.51-.25-8.53-3-8.53-3L30.35,69Z"/><path class="cls-1" d="M36.58,107.15S31.16,125.51,28.46,126c-2.5.49-2.09-15.54-1.88-20.92Z"/><path class="cls-1" d="M26.58,18.2s-6.12-4-6.54-1.62c-1.27,7.35-9.94,29.79-9.28,33.72s8.31,3.93,8.31,3.93Z"/><path class="cls-1" d="M16.64,57.79S14.53,84,10.23,83.21C5.28,82.35,4,80.08,4,80.08l6.12-23.42Z"/><path class="cls-1" d="M11,86.44S5,99.9,2.85,100c-2,.12,0-12.07.71-16.16Z"/></g></g></svg>