<svg xmlns="http://www.w3.org/2000/svg" viewBox="0 0 132.67 62.43"><defs><style>.cls-1{fill:#737477;}.cls-2,.cls-3,.cls-4{fill:#002a3d;}.cls-2,.cls-3{stroke:#ec549c;stroke-miterlimit:10;}.cls-2{stroke-width:4px;}.cls-3{stroke-width:3px;}</style></defs><title>Asset 76</title><g id="Layer_2" data-name="Layer 2"><g id="R_Foot_Bone" data-name="R Foot Bone"><path class="cls-1" d="M104.77,22.91c.33,1.29.91-1.83,2.2-2.16s2.81,2.27,2.49,1a2.42,2.42,0,1,0-4.69,1.18Z"/><path class="cls-1" d="M86.22,27.93c.33,1.29,1-2.27,2.34-2.61s2.67,2.69,2.34,1.4a2.42,2.42,0,0,0-4.68,1.21Z"/><path class="cls-1" d="M107.6,34s-5.51,9.67-16.44,2.46C101.7,41,107.6,34,107.6,34Z"/><path class="cls-1" d="M43.55,40.91c.19.75.52-.06,1.27-.25s1.63.31,1.44-.44a1.4,1.4,0,0,0-2.71.69Z"/><path class="cls-1" d="M32.81,43.82c.19.75.61-.32,1.36-.51s1.55.56,1.36-.19a1.4,1.4,0,0,0-2.71.7Z"/><path class="cls-1" d="M45.2,47.32s-3.19,5.6-9.53,1.42C41.78,51.41,45.2,47.32,45.2,47.32Z"/><path class="cls-1" d="M18.5,46.48c.19.75.52-1.06,1.27-1.25s1.63,1.31,1.44.56a1.4,1.4,0,1,0-2.71.69Z"/><path class="cls-1" d="M7.75,49.38c.19.75.15-1,.9-1.15s2,1.19,1.81.45a1.4,1.4,0,0,0-2.71.7Z"/><path class="cls-1" d="M20.14,51.05s-3.19,5.6-9.53,1.42A11.12,11.12,0,0,0,20.14,51.05Z"/></g><g id="L_Foot_Bone" data-name="L Foot Bone"><path class="cls-2" d="M122.86,2.74,50.48,30.89s15.19,19,5.88,25,74-11.54,74-11.54Z"/><path class="cls-2" d="M7.3,45.36l12-7.47S30.83,54.7,25.57,57c-3.81,1.68-2.06-.33-16.64,3S7.3,45.36,7.3,45.36Z"/><path class="cls-3" d="M48.93,34s-17.2-.64-20.7,3.25c-3.18,3.55-.77,16,3.09,18.82,4.67,3.37,20.17,1.57,22.76-3.58C56.24,48.25,48.93,34,48.93,34Z"/><path class="cls-4" d="M104.77,22.91c.33,1.29.91-1.83,2.2-2.16s2.81,2.27,2.49,1a2.42,2.42,0,1,0-4.69,1.18Z"/><path class="cls-4" d="M86.22,27.93c.33,1.29,1-2.27,2.34-2.61s2.67,2.69,2.34,1.4a2.42,2.42,0,0,0-4.68,1.21Z"/><path class="cls-4" d="M107.6,34s-5.51,9.67-16.44,2.46C101.7,41,107.6,34,107.6,34Z"/><path class="cls-4" d="M43.55,40.91c.19.75.52-.06,1.27-.25s1.63.31,1.44-.44a1.4,1.4,0,0,0-2.71.69Z"/><path class="cls-4" d="M32.81,43.82c.19.75.61-.32,1.36-.51s1.55.56,1.36-.19a1.4,1.4,0,0,0-2.71.7Z"/><path class="cls-4" d="M45.2,47.32s-3.19,5.6-9.53,1.42C41.78,51.41,45.2,47.32,45.2,47.32Z"/><path class="cls-4" d="M18.5,46.48c.19.75.52-1.06,1.27-1.25s1.63,1.31,1.44.56a1.4,1.4,0,1,0-2.71.69Z"/><path class="cls-4" d="M7.75,49.38c.19.75.15-1,.9-1.15s2,1.19,1.81.45a1.4,1.4,0,0,0-2.71.7Z"/><path class="cls-4" d="M20.14,51.05s-3.19,5.6-9.53,1.42A11.12,11.12,0,0,0,20.14,51.05Z"/></g></g></svg>