<svg xmlns="http://www.w3.org/2000/svg" viewBox="0 0 68.57 35.61"><defs><style>.cls-1,.cls-2{fill:#002a3d;}.cls-1{stroke:#ec549c;stroke-miterlimit:10;stroke-width:4px;}</style></defs><title>Asset 77</title><g id="Layer_2" data-name="Layer 2"><g id="L_Wrist_Bone" data-name="L Wrist Bone"><path class="cls-1" d="M58.42,12.88S26-.45,17.49,2.4C11.44,4.43,0,16.19,2.3,22.15,6,31.83,34.06,32.93,47.68,33.54S76.2,30.94,58.42,12.88Z"/><path class="cls-2" d="M18.46,15.7c0,1.33-1.08-.58-2.42-.58s-2.42,1.92-2.42.58a2.42,2.42,0,0,1,4.83,0Z"/><path class="cls-2" d="M48,15.7c0,1.33-1.08,0-2.42,0s-2.42,1.33-2.42,0a2.42,2.42,0,1,1,4.83,0Z"/><path class="cls-2" d="M21.93,21.53s6.88,8.74,16.63,0C28.81,27.62,21.93,21.53,21.93,21.53Z"/></g></g></svg>