<svg xmlns="http://www.w3.org/2000/svg" viewBox="0 0 135.81 122.27"><defs><style>.cls-1{fill:#d0f4df;}</style></defs><title>Asset 22</title><g id="Layer_2" data-name="Layer 2"><g id="R_Calf_Muscle" data-name="R Calf Muscle"><path class="cls-1" d="M4.17,37.77,0,21.74l33.86-8.8,3.39,13A37.73,37.73,0,0,1,48,10.64,42.44,42.44,0,0,1,65.54,1.49q15.22-4,25.81,2.59t15.11,24l13.6,52.3L131.64,78l4.17,16-47.69,12.4-4-15.23,6.46-2.32a8.17,8.17,0,0,0,4-2.85q1.06-1.66.13-5.27L84,39.48q-2.86-11-7.65-15.44t-14.3-2Q52.5,24.56,48.45,32a20.82,20.82,0,0,0-1.91,15.68L59.15,96.21l11.58-2.37,4.17,16L27.2,122.27l-4-15.23,6.46-2.32a8.19,8.19,0,0,0,4-2.85q1.06-1.66.13-5.27L19.36,41.09q-1.56-6-6.62-4.91Z"/></g></g></svg>