<svg xmlns="http://www.w3.org/2000/svg" viewBox="0 0 72.04 129.24"><defs><style>.cls-1{fill:#d0f4df;}</style></defs><title>Asset 24</title><g id="Layer_2" data-name="Layer 2"><g id="R_Calf_Muscle" data-name="R Calf Muscle"><path class="cls-1" d="M26.37,0,39.83.17l-.28,21.94,27.53.35L64.8,39.82,39.33,39.5l-.68,54.44q-.11,9.11,3.15,12.77T52,110.47a26.45,26.45,0,0,0,14-4.17l6,16q-10.44,7.12-26.38,6.92A45.5,45.5,0,0,1,30,126.65q-6.39-2.46-9.46-5.4a18.54,18.54,0,0,1-4.65-8.55,42.65,42.65,0,0,1-1.75-8.82q-.17-3.21-.09-9.42l.69-55.27L0,39,2.26,23.92Q12,23.22,17,17.17T26.37,0Z"/></g></g></svg>