<svg xmlns="http://www.w3.org/2000/svg" viewBox="0 0 96.63 109.98"><defs><style>.cls-1{fill:#d0f4df;}</style></defs><title>Asset 25</title><g id="Layer_2" data-name="Layer 2"><g id="R_Calf_Muscle" data-name="R Calf Muscle"><path class="cls-1" d="M.84,48.94q1.91-15.2,7.83-25.83T22.94,7.48a52.44,52.44,0,0,1,33.64-7Q68.91,2,76.93,7A42.84,42.84,0,0,1,89.12,18q4.17,5.84,6.31,16.23t.44,23.95Q92.32,86.49,76.73,99.35T39.67,109.52Q18.2,106.83,7.82,91.44T.84,48.94Zm42.64,42.7Q65.86,94.44,70.4,58.29,72.69,40,68.85,29.93T53.19,18.36q-11.81-1.48-18.49,6.86t-8.64,24q-3.63,29,6.12,37.7A20.14,20.14,0,0,0,43.47,91.63Z"/></g></g></svg>