<svg xmlns="http://www.w3.org/2000/svg" viewBox="0 0 32.76 44.54"><defs><style>.cls-1{fill:#d0f4df;}</style></defs><title>Asset 14</title><g id="Layer_2" data-name="Layer 2"><g id="R_Calf_Muscle" data-name="R Calf Muscle"><path class="cls-1" d="M19.81,7.22A13.78,13.78,0,0,0,14.94,7a7.33,7.33,0,0,0-4.37,1.76,3.85,3.85,0,0,0-1.36,3.32,5.67,5.67,0,0,0,.93,2.83,5.13,5.13,0,0,0,2.13,1.57,25.05,25.05,0,0,0,5.16,1.34q3,.48,4.43.79a25.4,25.4,0,0,1,3.67,1.16,10.51,10.51,0,0,1,3.43,2,11,11,0,0,1,3.72,7.55,11.7,11.7,0,0,1-3.48,10.19,18.16,18.16,0,0,1-11.08,4.72Q8,45.24,2.64,43.22L1.42,31.73,8.8,30.37l.42,4q.38,3.64,7.33,2.9T23,31.46a4,4,0,0,0-1.51-2.85,6.82,6.82,0,0,0-2.52-1.32q-1.2-.29-2.86-.53l-3.23-.49a31.22,31.22,0,0,1-3.42-.77,25.59,25.59,0,0,1-4.14-1.61Q.77,21.6.09,15.2T3.6,4.84A18.42,18.42,0,0,1,14.68.16,31.11,31.11,0,0,1,28.71,2l1,9.92L22.38,13.3,22,9.83A2.79,2.79,0,0,0,19.81,7.22Z"/></g></g></svg>