<svg xmlns="http://www.w3.org/2000/svg" viewBox="0 0 31.34 44.16"><defs><style>.cls-1{fill:#d0f4df;}</style></defs><title>Asset 16</title><g id="Layer_2" data-name="Layer 2"><g id="R_Calf_Muscle" data-name="R Calf Muscle"><path class="cls-1" d="M20.49,7.5a13.75,13.75,0,0,0-4.83-.67,7.33,7.33,0,0,0-4.51,1.36A3.84,3.84,0,0,0,9.5,11.37a5.67,5.67,0,0,0,.67,2.9,5.12,5.12,0,0,0,2,1.76,25.08,25.08,0,0,0,5,1.79q2.92.74,4.34,1.18a25.37,25.37,0,0,1,3.56,1.48,10.52,10.52,0,0,1,3.24,2.27,11,11,0,0,1,3,7.85A11.69,11.69,0,0,1,27,40.43a18.16,18.16,0,0,1-11.45,3.72Q5.38,44.31.19,41.82L0,30.27l7.47-.7.07,4q.06,3.66,7,3.54t6.9-5.18a4,4,0,0,0-1.25-3,6.82,6.82,0,0,0-2.39-1.54q-1.17-.4-2.8-.79l-3.17-.78a31.13,31.13,0,0,1-3.34-1.07,25.5,25.5,0,0,1-4-2Q.25,20.13.15,13.69t4.41-10A18.42,18.42,0,0,1,16,0,31.13,31.13,0,0,1,29.81,3.1l.16,10-7.47.7-.06-3.49A2.79,2.79,0,0,0,20.49,7.5Z"/></g></g></svg>