<svg xmlns="http://www.w3.org/2000/svg" viewBox="0 0 46.83 56.92"><defs><style>.cls-1{fill:#d0f4df;}</style></defs><title>Asset 17</title><g id="Layer_2" data-name="Layer 2"><g id="R_Calf_Muscle" data-name="R Calf Muscle"><path class="cls-1" d="M16.08,46.8,16.67,35,3.89,7.5,0,7.06.35,0,20.6,1l-.33,6.72-2.5.13A1.76,1.76,0,0,0,16,8.77,2.71,2.71,0,0,0,16.2,11l6.34,14.79.33,0L32.77,9l-4.13-.54L29,1.43l17.85.89L46.5,9,44,9.16q-1.59.09-2.95,2.35l-14.26,24L26.11,49.3l6.46.57-.35,7.06L8.81,55.76,9.15,49l4.41,0Q16,49,16.08,46.8Z"/></g></g></svg>