<svg xmlns="http://www.w3.org/2000/svg" viewBox="0 0 40.13 47.71"><defs><style>.cls-1{fill:#d0f4df;}</style></defs><title>Asset 19</title><g id="Layer_2" data-name="Layer 2"><g id="R_Calf_Muscle" data-name="R Calf Muscle"><path class="cls-1" d="M40.06,41.21l-.93,6.5L25.8,45.8l.77-5.35Q21.12,46.22,12.32,45-.44,43.12,1.61,28.89l2.73-19a2,2,0,0,0-1.73-2.6L0,6.75,1,0,15.45,2.08,11.7,28.16A14,14,0,0,0,12,34.91q.92,2.4,4.78,3a8.4,8.4,0,0,0,6.55-1.49A8,8,0,0,0,26.5,31L29,13.59a2.94,2.94,0,0,0-.19-1.92,2.26,2.26,0,0,0-1.52-.85l-2.61-.54,1-6.75L40.13,5.62,35.5,37.87a2.75,2.75,0,0,0,.16,1.83,2.76,2.76,0,0,0,1.56.85Z"/></g></g></svg>