<svg xmlns="http://www.w3.org/2000/svg" viewBox="0 0 865.06 358.74"><defs><style>.cls-1{fill:#d0f4df;}</style></defs><title>Asset 21</title><g id="Layer_2" data-name="Layer 2"><g id="R_Calf_Muscle" data-name="R Calf Muscle"><path class="cls-1" d="M27.54,294,19.19,192.26,6.75,196.38,0,181l43.4-19.09,86.77,92.33.19-.08L141.4,250l7.09,16.11L99.6,287.62l-6.75-15.35,7-3.74q3.05-1.79,3.69-3.43t-1.64-4.25l-9.15-10L48.35,270.36,50,289.53l11.62-4.44,7.09,16.11L24.94,320.47l-6.75-15.35,6-3.32Q28,299.67,27.54,294ZM39.09,189.16l6.14,61.76,35.25-15.51-40.82-46.5Z"/><path class="cls-1" d="M140.21,176.85l-4.17-16,33.86-8.8,3.39,13a37.73,37.73,0,0,1,10.78-15.32,42.44,42.44,0,0,1,17.51-9.15q15.22-4,25.81,2.59t15.11,24l13.6,52.3,11.58-2.37,4.17,16-47.69,12.4-4-15.23,6.46-2.32a8.17,8.17,0,0,0,4-2.85q1.06-1.66.13-5.27L220,178.56q-2.86-11-7.65-15.44t-14.3-2q-9.52,2.48-13.57,9.95a20.82,20.82,0,0,0-1.91,15.68l12.61,48.49,11.58-2.37,4.17,16-47.69,12.4-4-15.23,6.46-2.32a8.19,8.19,0,0,0,4-2.85q1.06-1.66.13-5.27l-14.43-55.5q-1.56-6-6.62-4.91Z"/><path class="cls-1" d="M362.06,122.8l8.05,76.59q.35,3.29,1.61,4.41t4.17,1l6.63-.28L384.24,221l-32.74,3.44-1.25-11.94-.64-.14q-8.74,15.91-26.65,17.79-21,2.21-32.5-10.12t-13.94-35.59q-2.94-28,9-45.08t39.12-19.93Q342.15,117.61,362.06,122.8ZM345.18,192l-5.6-53.33q-6-2.07-16.14-1-13.8,1.45-18.8,13.22T301.56,181q3.51,33.36,24.92,31.11,9.06-1,14.25-7T345.18,192Z"/><path class="cls-1" d="M414.43,96.19l13.46.17-.28,21.94,27.53.35L452.86,136l-25.46-.32-.68,54.44q-.11,9.11,3.15,12.77t10.2,3.75a26.45,26.45,0,0,0,14-4.17l6,16q-10.44,7.12-26.38,6.92a45.5,45.5,0,0,1-15.7-2.58q-6.39-2.46-9.46-5.4a18.54,18.54,0,0,1-4.65-8.55,42.65,42.65,0,0,1-1.75-8.82q-.17-3.21-.09-9.42l.69-55.27-14.7-.18,2.26-15.09q9.74-.7,14.78-6.75T414.43,96.19Z"/><path class="cls-1" d="M467.55,170.6q1.91-15.2,7.83-25.83t14.27-15.63a52.44,52.44,0,0,1,33.64-7q12.33,1.55,20.35,6.62a42.84,42.84,0,0,1,12.19,10.92q4.17,5.84,6.31,16.23t.44,23.95Q559,208.16,543.44,221t-37.06,10.17q-21.47-2.69-31.85-18.08T467.55,170.6Zm42.64,42.7q22.39,2.81,26.93-33.35,2.29-18.28-1.55-28.36T519.9,140q-11.81-1.48-18.49,6.86t-8.64,24q-3.63,29,6.12,37.7A20.14,20.14,0,0,0,510.18,213.3Z"/><path class="cls-1" d="M590.23,149.38l5-16,33.39,10.47-4,12.84q16-12.33,35.28-6.29t21,24q16-12.33,35-6.39,14.22,4.46,19.23,15.47t-.38,28.2l-16.17,51.56,11.07,4.12-5,15.8-47-14.74,4.71-15,6.7,1.45a7.61,7.61,0,0,0,4.77-.35q1.68-.88,2.94-4.18l12.82-40.89q3.41-10.86,2.58-16.88t-9.91-8.86q-9.09-2.85-15.66,1.16t-9.49,13.3l-14.87,47.41,10.68,4-5,15.8-46.62-14.62,4.71-15,6.71,1.45a8.18,8.18,0,0,0,4.87-.32q1.78-.85,2.9-4.41l12.76-40.69q3.41-10.86,2.58-16.87t-10-8.89q-9.19-2.88-15.72,1.36a22.61,22.61,0,0,0-9.2,12.74l-15,47.8,10.48,3.94-5,15.8L564.88,233l4.71-15,6.7,1.45a8.18,8.18,0,0,0,4.87-.32q1.78-.85,2.9-4.41l.2.06,17.1-54.52q1.05-3.36.37-5t-3.39-2.69Z"/><path class="cls-1" d="M799.45,320.85l7.37-13.9q-17.63,8.93-37.2-1.45-28.35-15-11.57-46.68l19.5-36.76q2.62-4.94-1.86-7.55L770,211l8-15,32.19,17.07-27.84,52.49q-5.14,9.7-5,16.09t8.72,11q8.59,4.56,16.62,2a19.92,19.92,0,0,0,12-10l17.56-33.1q1.65-3.11,1.27-4.83t-2.94-3.08l-5.66-3.47,8-15,32.19,17.07-47,88.52q-11.74,22.13-27.87,26.7t-37.81-6.93q-21.67-11.5-30.54-23.93l13.48-25.42,18.15,7.75-4.66,8.78a7.43,7.43,0,0,0,1,9.1q3.65,4.16,11.7,8.43Q785.18,347.73,799.45,320.85Z"/><path class="cls-1" d="M207,75.84l-8.72-36.71L192,40.63q-1.86.44-1.26,2.95l.9,3.8-8.38,1.39L180,35,222.24,25l3.27,13.75-8.11,2.53-.9-3.8a3.56,3.56,0,0,0-.87-1.84q-.54-.47-2.07-.1l-5.5,1.31,9.19,38.65,6.45-1.28,1.63,6.87-22.8,5.42L201,79.92l4.23-1.26Q207.47,77.86,207,75.84Z"/><path class="cls-1" d="M243.51,67.57l-7.29-39.81a2.75,2.75,0,0,0-.78-1.72,2.38,2.38,0,0,0-1.7-.28l-2.89.36-1.24-6.79,14.55-2.66,4,22A14,14,0,0,1,259,30.43q6.21-1.14,10.26,1.8t5.35,10l3.91,21.34,4.7-.61,1.2,6.54L265,73.11l-1.14-6.21,2.65-.74a3.28,3.28,0,0,0,1.67-1,2.75,2.75,0,0,0,.21-2.11l-3.08-16.84a13.23,13.23,0,0,0-2.55-6.29q-1.77-2-5.65-1.33a8.38,8.38,0,0,0-5.77,3.55,8.24,8.24,0,0,0-1.26,6.27l3.62,19.78,4.71-.61,1.2,6.54-19.46,3.56L239,71.44l2.65-.74a3.29,3.29,0,0,0,1.67-1A2.75,2.75,0,0,0,243.51,67.57Z"/><path class="cls-1" d="M299.82,25.31l4.87,34.56,4.73-.41.93,6.58L290.75,68.8l-.88-6.25,2.68-.63a2.39,2.39,0,0,0,2-3l-3.22-22.88a2.92,2.92,0,0,0-.72-1.83A2.14,2.14,0,0,0,289,34l-2.9.24-1-6.83Zm-11.37-5.66a5.83,5.83,0,0,1-2.34-4.08,6,6,0,0,1,5.39-7.05,6.25,6.25,0,0,1,4.82,1.13,6,6,0,0,1,2.39,4.15,5.76,5.76,0,0,1-1.16,4.57,6.41,6.41,0,0,1-4.33,2.33A6.26,6.26,0,0,1,288.45,19.65Z"/><path class="cls-1" d="M334.59,27.58a13.78,13.78,0,0,0-4.87-.24,7.33,7.33,0,0,0-4.37,1.76A3.85,3.85,0,0,0,324,32.42a5.67,5.67,0,0,0,.93,2.83A5.13,5.13,0,0,0,327,36.82a25.05,25.05,0,0,0,5.16,1.34q3,.48,4.43.79a25.4,25.4,0,0,1,3.67,1.16,10.51,10.51,0,0,1,3.43,2,11,11,0,0,1,3.72,7.55A11.7,11.7,0,0,1,344,59.81a18.16,18.16,0,0,1-11.08,4.72q-10.08,1.07-15.48-1L316.2,52.09l7.38-1.36.42,4q.38,3.64,7.33,2.9t6.41-5.77A4,4,0,0,0,336.22,49a6.82,6.82,0,0,0-2.52-1.32q-1.2-.29-2.86-.53l-3.23-.49a31.22,31.22,0,0,1-3.42-.77A25.59,25.59,0,0,1,320,44.24q-4.5-2.28-5.18-8.69t3.5-10.36a18.42,18.42,0,0,1,11.08-4.68,31.11,31.11,0,0,1,14,1.86l1,9.92-7.38,1.36-.37-3.47A2.79,2.79,0,0,0,334.59,27.58Z"/><path class="cls-1" d="M386.76,17.47l1.78,34.86h4.74l.34,6.64-19.75,1-.32-6.31,2.73-.39a2.39,2.39,0,0,0,2.27-2.78l-1.18-23.07a2.92,2.92,0,0,0-.55-1.89,2.14,2.14,0,0,0-1.64-.42l-2.91,0-.35-6.89Zm-10.82-6.65a5.83,5.83,0,0,1-2-4.27A6,6,0,0,1,380,0a6.25,6.25,0,0,1,4.7,1.55,6,6,0,0,1,2,4.35,5.76,5.76,0,0,1-1.56,4.45,6.41,6.41,0,0,1-4.52,1.94A6.26,6.26,0,0,1,375.94,10.83Z"/><path class="cls-1" d="M421.19,22.83a13.75,13.75,0,0,0-4.83-.67,7.33,7.33,0,0,0-4.51,1.36,3.84,3.84,0,0,0-1.65,3.18,5.67,5.67,0,0,0,.67,2.9,5.12,5.12,0,0,0,2,1.76,25.08,25.08,0,0,0,5,1.79q2.92.74,4.34,1.18a25.37,25.37,0,0,1,3.56,1.48A10.52,10.52,0,0,1,429,38.08a11,11,0,0,1,3,7.85,11.69,11.69,0,0,1-4.37,9.84,18.16,18.16,0,0,1-11.45,3.72q-10.14.16-15.33-2.33l-.19-11.55,7.47-.7.07,4q.06,3.66,7,3.54t6.9-5.18a4,4,0,0,0-1.25-3,6.82,6.82,0,0,0-2.39-1.54q-1.17-.4-2.8-.79l-3.17-.78a31.13,31.13,0,0,1-3.34-1.07,25.5,25.5,0,0,1-4-2Q401,35.46,400.85,29t4.41-10a18.42,18.42,0,0,1,11.45-3.68,31.13,31.13,0,0,1,13.81,3.1l.16,10-7.47.7-.06-3.49A2.79,2.79,0,0,0,421.19,22.83Z"/><path class="cls-1" d="M473.44,49.89,474,38.1,461.24,10.59l-3.89-.44.35-7.06L478,4.1l-.33,6.72-2.5.13a1.76,1.76,0,0,0-1.75.91,2.71,2.71,0,0,0,.18,2.26l6.34,14.79.33,0,9.91-16.81L486,11.57l.35-7.06,17.85.89-.33,6.72-2.5.12q-1.59.09-2.95,2.35l-14.26,24-.69,13.78,6.46.57L489.57,60l-23.41-1.16.33-6.72,4.41,0Q473.33,52,473.44,49.89Z"/><path class="cls-1" d="M502.17,39.75A28.43,28.43,0,0,1,505,29.29a16.32,16.32,0,0,1,5.53-6.45,21,21,0,0,1,13.41-3.25,19.76,19.76,0,0,1,8.25,2.4,17.2,17.2,0,0,1,5,4.23,17.22,17.22,0,0,1,2.74,6.43,29.6,29.6,0,0,1,.48,9.6Q539.35,53.67,533.25,59a18.73,18.73,0,0,1-14.74,4.55q-8.65-.81-13-6.85T502.17,39.75Zm17.65,16.59q9,.84,10.38-13.72.69-7.36-1-11.36a7.11,7.11,0,0,0-6.43-4.44,7.64,7.64,0,0,0-7.33,3q-2.58,3.43-3.16,9.72-1.09,11.67,2.93,15A8.09,8.09,0,0,0,519.81,56.34Z"/><path class="cls-1" d="M588.52,64.53l-.93,6.5-13.33-1.91.77-5.35q-5.45,5.77-14.25,4.5Q548,66.45,550.07,52.21l2.73-19a2,2,0,0,0-1.73-2.6l-2.61-.54,1-6.75,14.48,2.08-3.74,26.08a14,14,0,0,0,.29,6.76q.92,2.4,4.78,3a8.4,8.4,0,0,0,6.55-1.49A8,8,0,0,0,575,54.28l2.49-17.36a2.94,2.94,0,0,0-.19-1.92,2.26,2.26,0,0,0-1.52-.85l-2.61-.54,1-6.75,14.48,2.08L584,61.19a2.75,2.75,0,0,0,.16,1.83,2.76,2.76,0,0,0,1.56.85Z"/><path class="cls-1" d="M600.74,64.07l4.35-22.61a2.94,2.94,0,0,0-.1-1.92,2.27,2.27,0,0,0-1.47-.92l-3.38-.9,1.27-6.61,13.79,2.65L614,39.88a12.89,12.89,0,0,1,5.58-4.38,12.74,12.74,0,0,1,7.54-.71,17.67,17.67,0,0,1,7.37,3.28l-2.34,12.16-7.7-.89.72-3.75q.31-1.63-.42-2.2a5.42,5.42,0,0,0-2.13-.83,7,7,0,0,0-5.79,1.3,8.7,8.7,0,0,0-3.22,5.52L610,68.3,617,70l-1.24,6.45-21.87-4.21,1.19-6.2,2.74.27a3.28,3.28,0,0,0,1.93-.35A2.75,2.75,0,0,0,600.74,64.07Z"/></g></g></svg>