<svg xmlns="http://www.w3.org/2000/svg" viewBox="0 0 1334.81 314.34"><defs><style>.cls-1{fill:#0c3548;}</style></defs><title>Asset 28</title><g id="Layer_2" data-name="Layer 2"><g id="R_Calf_Muscle" data-name="R Calf Muscle"><path class="cls-1" d="M57,175.64,21.71,144.32l-5.38,6.07q-1.59,1.79.83,3.93l3.66,3.24L13.23,165,0,153.28l36.09-40.7,13.23,11.73-6.49,8.42-3.66-3.24A4.48,4.48,0,0,0,37,128.23q-.89-.09-2.2,1.38l-4.69,5.29,37.19,33,5.69-5.94,6.61,5.87L60.09,189.75l-6.3-5.59,3.42-4.33Q59,177.37,57,175.64Z"/><path class="cls-1" d="M87,143.69,54.57,104.76a3.44,3.44,0,0,0-1.9-1.39,3,3,0,0,0-2,.74l-2.93,2.17-5.52-6.64L56.42,87.8,74.31,109.3q-.76-9.37,6.75-15.63,6.07-5.05,12.29-4.34t12,7.67l17.36,20.87,4.76-3.55,5.32,6.4-19,15.83-5.05-6.08,2.44-2.44a4.1,4.1,0,0,0,1.19-2.14,3.44,3.44,0,0,0-1.07-2.42L97.57,107q-3.46-4.16-6.64-5.3t-7,2a10.48,10.48,0,0,0-4.11,7.41,10.31,10.31,0,0,0,2.48,7.61l16.1,19.35,4.76-3.55,5.32,6.4-19,15.83L84.4,150.7l2.44-2.43A4.1,4.1,0,0,0,88,146.12,3.44,3.44,0,0,0,87,143.69Z"/><path class="cls-1" d="M130.41,59.4q6.67-4,12.55-3.17T152.4,63a16.12,16.12,0,0,1,1.14,15.12,25.65,25.65,0,0,1-4.37,6.42,54.75,54.75,0,0,1-12.35,9.92,13.79,13.79,0,0,0,7.55,5.82q4.42,1.27,9.93-2.07T163,87.59l7.75,5.15a24.48,24.48,0,0,1-4,6.93,30.22,30.22,0,0,1-8.62,7.54q-10.85,6.58-19.56,3.65T123.44,97.44q-6.36-10.49-4.9-21.11T130.41,59.4Zm8.28,22.77A16.85,16.85,0,0,0,143.13,76q1.54-3.67-.13-6.43-3.29-5.42-8.63-2.19a10.14,10.14,0,0,0-5.25,8.59,21.25,21.25,0,0,0,2.81,11.25A54.61,54.61,0,0,0,138.69,82.17Z"/><path class="cls-1" d="M184.4,42.78a17.22,17.22,0,0,0-5.9,1.58A9.16,9.16,0,0,0,174,48.12a4.81,4.81,0,0,0-.36,4.48,7.08,7.08,0,0,0,2.18,3,6.4,6.4,0,0,0,3.14,1.06,31.28,31.28,0,0,0,6.65-.38q3.73-.56,5.58-.75a31.89,31.89,0,0,1,4.82,0,13.14,13.14,0,0,1,4.84,1,13.8,13.8,0,0,1,7.32,7.57q3.15,7.14-.25,13.47t-11.4,9.86q-11.61,5.12-18.81,4.77L171.84,79l8.27-4.44,2,4.57q1.85,4.19,9.84.66t5.43-9.33a5,5,0,0,0-2.89-2.82A8.54,8.54,0,0,0,191,67q-1.54.11-3.61.45t-4,.64a38.91,38.91,0,0,1-4.37.4,32.11,32.11,0,0,1-5.55-.34q-6.24-1-9.49-8.37t.22-13.68q3.47-6.3,11.42-9.81A39,39,0,0,1,193,33.18l5,11.42L189.77,49,188,45A3.49,3.49,0,0,0,184.4,42.78Z"/><path class="cls-1" d="M228.09,17.47q7.48-2.22,12.95.12t7.42,8.92a16.12,16.12,0,0,1-2.73,14.91,25.74,25.74,0,0,1-5.86,5.1A54.82,54.82,0,0,1,225.4,53a13.79,13.79,0,0,0,5.82,7.55q4,2.35,10.13.52T252.41,53l6.19,7A24.5,24.5,0,0,1,253,65.63a30.25,30.25,0,0,1-10.25,5.11q-12.16,3.61-19.84-1.43T211.69,52.5q-3.49-11.77.62-21.67T228.09,17.47Zm2.23,24.13a16.84,16.84,0,0,0,5.87-4.89q2.42-3.16,1.51-6.25-1.8-6.08-7.79-4.31a10.14,10.14,0,0,0-7.26,7,21.25,21.25,0,0,0-.14,11.59A55,55,0,0,0,230.32,41.6Z"/><path class="cls-1" d="M325.22,4.17l4.13,38.47a3.43,3.43,0,0,0,.81,2.21,3,3,0,0,0,2.09.51l3.33-.15.89,8.27L320,55.25l-.64-6-.32-.07a16.43,16.43,0,0,1-13.37,9q-10.55,1.13-16.33-5t-7-17.86q-1.51-14.06,4.47-22.65T306.43,2.53A52.55,52.55,0,0,1,325.22,4.17ZM316.82,39l-2.87-26.78a19.41,19.41,0,0,0-8.11-.49q-6.93.74-9.43,6.66t-1.52,15.12q1.8,16.75,12.55,15.6a10.45,10.45,0,0,0,7.15-3.54A8.45,8.45,0,0,0,316.82,39Z"/><path class="cls-1" d="M347.43,42.06l.19-28.81a3.68,3.68,0,0,0-.56-2.34,2.83,2.83,0,0,0-2-.79l-4.37-.34.05-8.42,17.58.11-.05,7.8a16.14,16.14,0,0,1,5.87-6.67A16,16,0,0,1,373.23,0,22.14,22.14,0,0,1,383,2.35l-.1,15.5-9.68.67,0-4.78q0-2.08-1-2.61a6.8,6.8,0,0,0-2.8-.54,8.73,8.73,0,0,0-6.83,2.92,10.89,10.89,0,0,0-2.7,7.52l-.16,24.13,9,.47-.05,8.22-27.87-.18.05-7.9,3.43-.29a4.09,4.09,0,0,0,2.29-.87A3.44,3.44,0,0,0,347.43,42.06Z"/><path class="cls-1" d="M418.27,3.07q7.77.69,12,4.87t3.62,11a16.12,16.12,0,0,1-8,12.86,25.65,25.65,0,0,1-7.33,2.59,54.81,54.81,0,0,1-15.83.69,13.8,13.8,0,0,0,2.64,9.16q2.81,3.64,9.23,4.21t13.25-3.42l3.2,8.74A24.51,24.51,0,0,1,423.69,57a30.22,30.22,0,0,1-11.41,1q-12.64-1.12-17.93-8.63t-4.21-19.74q1.08-12.22,8.55-19.92T418.27,3.07Zm-6.81,23.26a16.84,16.84,0,0,0,7.26-2.39q3.42-2,3.7-5.26.56-6.32-5.66-6.87a10.14,10.14,0,0,0-9.32,3.82,21.25,21.25,0,0,0-4.39,10.73A54.91,54.91,0,0,0,411.47,26.33Z"/><path class="cls-1" d="M493.56,68.91l1.79-7.7q-7.41,6.61-18.25,4.09-15.7-3.64-11.63-21.17l4.73-20.36q.64-2.73-1.87-3.42l-3.2-1,1.93-8.31,17.83,4.14L478.14,44.3q-1.25,5.37-.36,8.46t5.65,4.19a10.51,10.51,0,0,0,8.33-1.16,10,10,0,0,0,4.53-6.42L500.54,31a3.89,3.89,0,0,0,0-2.51,2.55,2.55,0,0,0-1.82-1.12l-3.2-1,1.93-8.31,17.83,4.14-11.38,49Q501,83.56,493.81,87.86t-19.25,1.51q-12-2.79-17.92-7.68l3.27-14.08L469.72,69,468.6,73.9a3.73,3.73,0,0,0,1.67,4.29A20.86,20.86,0,0,0,477,80.77Q490.1,83.8,493.56,68.91Z"/><path class="cls-1" d="M520.65,50.86A35.6,35.6,0,0,1,527.24,39a20.43,20.43,0,0,1,8.67-6.16,26.34,26.34,0,0,1,17.27.12,24.7,24.7,0,0,1,9.29,5.41A21.54,21.54,0,0,1,567.29,45a21.55,21.55,0,0,1,1.37,8.64,37.07,37.07,0,0,1-2.33,11.8Q561.57,79,552.55,83.68t-19.28,1.05Q523,81.13,519.56,72.47T520.65,50.86ZM537,76.36q10.69,3.76,16.77-13.51,3.07-8.73,2.25-14.09t-6.46-7.34q-5.64-2-9.81,1.4T533,53.66q-4.86,13.83-1,19.16A10.12,10.12,0,0,0,537,76.36Z"/><path class="cls-1" d="M613.78,109.15l-3.56,7.41L595,109.27l2.93-6.09q-8.67,4.84-18.7,0-14.54-7-6.75-23.2l10.4-21.66q1.22-2.53-1.08-3.75L578.91,53l3.69-7.69,16.5,7.92L584.84,82.92q-2.39,5-2.19,8.18t4.6,5.32a10.52,10.52,0,0,0,8.38.68,10,10,0,0,0,5.82-5.28L610.94,72a3.67,3.67,0,0,0,.5-2.36A2.83,2.83,0,0,0,610,68.09L607,66.46l3.69-7.69,16.5,7.92-17.64,36.75a3.44,3.44,0,0,0-.5,2.24,3.46,3.46,0,0,0,1.54,1.6Z"/><path class="cls-1" d="M625.73,112.52l14.82-24.7a3.69,3.69,0,0,0,.71-2.3,2.83,2.83,0,0,0-1.34-1.71l-3.58-2.51,4.33-7.22,15.07,9-4,6.69A16.14,16.14,0,0,1,660.18,87a15.93,15.93,0,0,1,9.17,2.41,22.11,22.11,0,0,1,7.25,7l-8,13.29L660,105.4l2.46-4.1q1.07-1.78.45-2.77a6.8,6.8,0,0,0-2.14-1.89,8.73,8.73,0,0,0-7.37-1,10.88,10.88,0,0,0-6.15,5.1l-12.41,20.69,7.54,5-4.23,7-23.9-14.34,4.07-6.78,3.1,1.5a4.12,4.12,0,0,0,2.42.42Q624.77,114.13,625.73,112.52Z"/><path class="cls-1" d="M721.15,98.5l8.42-11.61,24.22,17.56L747,113.77q16.33-5.64,30.31,4.49t10.53,25.13q16.34-5.64,30.09,4.33,10.32,7.48,11.39,17.77t-8,22.75l-27.12,37.4,7.86,6.35-8.31,11.46-34.1-24.73,7.9-10.89,5,3a6.5,6.5,0,0,0,4,1q1.61-.25,3.52-2.59l21.51-29.66q5.71-7.88,6.68-13t-5.63-9.88q-6.59-4.78-13-3.31t-11.3,8.2L753.41,196l7.57,6.14-8.31,11.46L718.85,189.1l7.9-10.89,5,3a7,7,0,0,0,4,1.07q1.68-.2,3.55-2.78L760.78,150q5.71-7.88,6.68-13t-5.7-9.93q-6.66-4.83-13.12-3.17a19.33,19.33,0,0,0-10.92,7.82L712.57,166.4l7.43,6-8.31,11.46-33.82-24.52,7.9-10.89,5,3a7,7,0,0,0,4,1.07q1.67-.21,3.55-2.78l.14.1,28.68-39.55q1.77-2.43,1.65-3.94a4.83,4.83,0,0,0-2-3.1Z"/><path class="cls-1" d="M900.55,280.55l-5.9,12.68-26-12.1,4.85-10.43q-14.65,8.41-31.82.42-24.88-11.57-12-39.34L847,194.71q2-4.33-1.92-6.36l-5-2.71,6.12-13.16,28.25,13.14L850.77,236.5q-4,8.51-3.57,14t7.93,9q7.54,3.51,14.28,1a17,17,0,0,0,9.8-9.11L895,217.43a6.26,6.26,0,0,0,.8-4,4.82,4.82,0,0,0-2.57-2.66l-5-2.71,6.12-13.16L922.58,208l-29.27,62.91q-1.19,2.57-.8,3.82a5.89,5.89,0,0,0,2.65,2.7Z"/><path class="cls-1" d="M974.14,232.19a29.33,29.33,0,0,0-9.8-3.45q-5.92-1.11-10,.92a8.19,8.19,0,0,0-4.8,5.95,12.07,12.07,0,0,0,.17,6.33,10.91,10.91,0,0,0,3.39,4.5,53.29,53.29,0,0,0,9.71,5.87q5.78,2.79,8.56,4.3a54.31,54.31,0,0,1,6.79,4.6,22.38,22.38,0,0,1,5.79,6.12q4.88,7.58,3,17.67-2.44,13-13.3,18.67t-25.48,2.89q-21.23-4-31-11.38L921.69,271l15.89,1.71L936,281.06q-1.43,7.66,13.18,10.39t16.6-7.88a8.49,8.49,0,0,0-1.35-6.74,14.53,14.53,0,0,0-4.34-4.23q-2.28-1.32-5.5-2.83t-6.29-3a66.34,66.34,0,0,1-6.52-3.65,54.45,54.45,0,0,1-7.47-5.81q-7.8-7.4-5.28-20.88t13.46-19q10.93-5.52,25.46-2.8A66.27,66.27,0,0,1,995.46,227l-3.9,20.88-15.89-1.71,1.37-7.31A6,6,0,0,0,974.14,232.19Z"/><path class="cls-1" d="M1028.8,289.8q5.7,8.3,16.41,8.24t21.12-7.71l7.67,13.59q-12.52,10.33-31.46,10.41t-29.88-11.81q-10.94-11.9-11.05-35.26t12.31-35.19q12.42-11.83,28.09-11.9a60.38,60.38,0,0,1,29.15,7.12l.11,23L1055,251.62l0-8.5q0-4.78-3.48-5.91a22.55,22.55,0,0,0-7.17-1.12q-21.42.1-21.28,30.37Q1023.1,281.51,1028.8,289.8Z"/><path class="cls-1" d="M1106.8,180.58l13.08,110.74,10.08-.66,1.66,14.06-41.84,4.94-1.58-13.36,5.74-1.21q5-1.13,4.43-6.23l-10.23-86.66q-.46-3.86-4.89-3.7l-6.19.38-1.72-14.59Z"/><path class="cls-1" d="M1171.4,204.2q13-2.65,21.93,2.13t11.25,16.23a27.43,27.43,0,0,1-6.86,24.88,43.76,43.76,0,0,1-10.7,7.78,93.36,93.36,0,0,1-25.48,8.8q2.39,9.09,8.74,13.66t17.1,2.39q10.75-2.19,20-12l9.45,12.71q-2.84,3.83-10.4,8.8a51.42,51.42,0,0,1-18.15,7.13q-21.16,4.31-33.43-5.39t-16.43-30.16q-4.16-20.46,4.29-36.64T1171.4,204.2Zm.17,41.24a28.66,28.66,0,0,0,10.68-7.41q4.58-5,3.49-10.37-2.15-10.58-12.56-8.46-9.71,2-13.35,10.75a36.16,36.16,0,0,0-2,19.64A92.82,92.82,0,0,0,1171.57,245.44Z"/><path class="cls-1" d="M1257.35,199.13a29.35,29.35,0,0,0-10.32,1.23q-5.8,1.62-8.55,5.24a8.18,8.18,0,0,0-1.68,7.46,12.06,12.06,0,0,0,2.95,5.61,10.9,10.9,0,0,0,5,2.55,53.35,53.35,0,0,0,11.3,1q6.42,0,9.58.08a54.37,54.37,0,0,1,8.13,1.13,22.39,22.39,0,0,1,7.9,2.94q7.73,4.64,10.49,14.53,3.57,12.79-3.69,22.63t-21.59,13.84q-20.8,5.81-32.84,3.48l-6.62-23.69,15-5.48,2.29,8.18q2.1,7.5,16.42,3.5t11.41-14.4a8.48,8.48,0,0,0-4.19-5.45,14.54,14.54,0,0,0-5.76-1.88q-2.63-.18-6.19-.11t-7,.11a66.24,66.24,0,0,1-7.46-.39,54.49,54.49,0,0,1-9.26-1.92q-10.27-3.2-14-16.41t3.68-23q7.37-9.78,21.61-13.76a66.25,66.25,0,0,1,30.12-1.06l5.72,20.46-15,5.48-2-7.16A6,6,0,0,0,1257.35,199.13Z"/><path class="cls-1" d="M1325.68,260q-5.9,1.9-10.16-.35a12.38,12.38,0,0,1-6-7.56,12.82,12.82,0,0,1,.46-9.82q2.17-4.51,7.82-6.33a13,13,0,0,1,10.07.38,12,12,0,0,1,6.14,7.5,13,13,0,0,1-.38,9.79Q1331.57,258.06,1325.68,260Z"/></g></g></svg>