<svg xmlns="http://www.w3.org/2000/svg" viewBox="0 0 724.17 1515.3"><defs><style>.cls-1{fill:none;stroke:#fede5d;stroke-miterlimit:10;stroke-width:4px;}</style></defs><title>Asset 44</title><g id="Layer_2" data-name="Layer 2"><g id="Body"><path class="cls-1" d="M722,883.44s-11.44-17-15.89-31c-4.91-15.39-37.34-53.38-45.43-68.33,0-.06,0-.12-.07-.18s-27.1-138.57-41.94-186.67c-12.25-39.72-26.52-125.47-46-164.95-5.21-10.55-40.6-22.33-43-22.77-1.08-.2-94.91-36.36-115.65-63.84-6.62-8.78,0-44,0-44,60.16-13.94,90-106.43,90-164.52C504.07,68.3,441.48,2,364.28,2S224.49,68.3,224.49,137.25c0,57.93,29.61,150.29,89.51,164.4,0,0,6.65,35.44,0,44.3-20.18,26.89-110.45,63.43-111.58,63.65-3.72.74-34.25,16.52-39.13,25.88-19.48,37.35-36.5,120-49,161.82-14.4,48.1-34.41,161.69-44,184.13C65.15,793.59,24.76,836.81,19,853.16,14.14,867,2.2,883.63,2.2,883.63A8.21,8.21,0,0,0,7,893.11c18.08,8.28,30.76-16,30.76-16s-12.61,38-13.44,50.47C23.51,939.86,25.81,952.47,41,947c8.89-3.18,14.73-30.11,14.73-30.11s-1.28,41.59,14.51,42.62S86.4,916.74,86.4,916.74s.18,41.86,15.57,43.84c12.05,1.55,16.85-17.39,15.16-40.56,9.18,19.58,15.56,19.52,21.19,17.68,17-5.57,4.38-25-4.07-79-3.24-20.68,0-35.63.45-44.55.52-9.73,34.84-129,53.09-169.45,7.54-16.72,24.85-75.35,24.85-75.35s-19.22,300.59-18.47,301.1c0,0,5,181,1.14,235.14-5.21,72.81-3.13,313.51-.8,316-18.4,7.4-75.44,35.21-111.63,48.14-43.63,15.58-65,51.43,31.41,42.08s152.48,4.71,177.39-34.28c10.19-16-.2-57.7-.2-57.7s.85-4.45,1-7.07l20.64-287.29s27.37-221.15,55.7-222.07c26.38-.86,49.43,217.28,49.43,217.28l21.13,294.41c.23,3.15-4.19,49.18,4.27,62.43,24.91,39,81,24.93,177.39,34.28s75-26.5,31.41-42.08c-33.29-11.89-106.08-48.76-106.33-52.25,0,0-9-244.84-11.32-320.33-1.57-52,.75-226.24.75-226.24.4-7.22-24.41-301.52-24.41-301.52s20.24,57.55,28.76,75.35c17.06,35.65,54.47,125.55,55.91,157.79.38,8.41.59,22-5,52.13-10,53.74-23.24,72.78-6.4,78.85,5.58,2,12,2.25,21.71-17-2.37,23.11,1.86,42.19,14,41,15.44-1.52,16.85-43.36,16.85-43.36s-1,43.84,14.9,43.27,15.76-42.18,15.76-42.18,5,27.09,13.84,30.53c15,5.87,18.16-6.69,17.2-19-.94-12.09-11.95-50.84-11.95-50.84s12,24.65,30.28,16.9A8.21,8.21,0,0,0,722,883.44Z"/></g></g></svg>