<svg xmlns="http://www.w3.org/2000/svg" viewBox="0 0 1161.41 313.42"><defs><style>.cls-1{fill:#0c3548;}</style></defs><title>Asset 33</title><g id="Layer_2" data-name="Layer 2"><g id="R_Calf_Muscle" data-name="R Calf Muscle"><path class="cls-1" d="M57,175.64,21.71,144.32l-5.38,6.07q-1.59,1.79.82,3.93l3.66,3.24L13.23,165,0,153.28l36.09-40.7,13.23,11.73-6.49,8.42-3.66-3.24A4.47,4.47,0,0,0,37,128.23q-.89-.09-2.2,1.38l-4.69,5.29,37.19,33,5.69-5.94,6.61,5.87L60.09,189.75l-6.3-5.59,3.42-4.33Q59,177.37,57,175.64Z"/><path class="cls-1" d="M87,143.69,54.57,104.76a3.44,3.44,0,0,0-1.9-1.39,3,3,0,0,0-2,.74l-2.93,2.17-5.52-6.64L56.42,87.8,74.31,109.3q-.77-9.37,6.75-15.63,6.07-5.05,12.29-4.34t12,7.67l17.36,20.87,4.76-3.55,5.32,6.4-19,15.83-5.05-6.08,2.44-2.44a4.11,4.11,0,0,0,1.19-2.14,3.45,3.45,0,0,0-1.07-2.42L97.57,107q-3.46-4.16-6.64-5.3t-7,2a10.49,10.49,0,0,0-4.11,7.41,10.31,10.31,0,0,0,2.48,7.61l16.1,19.35,4.76-3.55,5.32,6.4-19,15.83L84.4,150.7l2.44-2.44A4.1,4.1,0,0,0,88,146.12,3.44,3.44,0,0,0,87,143.69Z"/><path class="cls-1" d="M130.41,59.4q6.67-4,12.55-3.17T152.4,63a16.12,16.12,0,0,1,1.14,15.12,25.64,25.64,0,0,1-4.37,6.42,54.78,54.78,0,0,1-12.35,9.92,13.79,13.79,0,0,0,7.55,5.82q4.42,1.27,9.93-2.07T163,87.59l7.75,5.15a24.49,24.49,0,0,1-4,6.93,30.23,30.23,0,0,1-8.62,7.54q-10.85,6.58-19.56,3.65T123.44,97.44q-6.36-10.49-4.9-21.11T130.41,59.4Zm8.28,22.77A16.86,16.86,0,0,0,143.13,76q1.54-3.67-.13-6.43-3.29-5.42-8.63-2.19a10.14,10.14,0,0,0-5.25,8.59,21.25,21.25,0,0,0,2.81,11.25A54.65,54.65,0,0,0,138.69,82.17Z"/><path class="cls-1" d="M184.4,42.78a17.22,17.22,0,0,0-5.9,1.58A9.16,9.16,0,0,0,174,48.12a4.81,4.81,0,0,0-.36,4.48,7.08,7.08,0,0,0,2.18,3,6.41,6.41,0,0,0,3.14,1.06,31.35,31.35,0,0,0,6.65-.38q3.73-.56,5.58-.75a31.63,31.63,0,0,1,4.82,0,13.14,13.14,0,0,1,4.84,1,13.8,13.8,0,0,1,7.32,7.57q3.15,7.14-.25,13.47t-11.4,9.86q-11.61,5.12-18.81,4.77L171.84,79l8.27-4.44,2,4.57q1.85,4.19,9.84.66t5.43-9.33a5,5,0,0,0-2.89-2.82A8.56,8.56,0,0,0,191,67q-1.54.11-3.61.45c-1.38.23-2.72.45-4,.64a38.69,38.69,0,0,1-4.37.39,31.91,31.91,0,0,1-5.55-.34q-6.24-1-9.49-8.37t.22-13.68q3.47-6.3,11.42-9.81A38.94,38.94,0,0,1,193,33.18l5,11.42L189.77,49,188,45A3.49,3.49,0,0,0,184.4,42.78Z"/><path class="cls-1" d="M228.09,17.47q7.48-2.22,12.94.12t7.42,8.92a16.11,16.11,0,0,1-2.73,14.91,25.66,25.66,0,0,1-5.86,5.1A54.79,54.79,0,0,1,225.4,53a13.79,13.79,0,0,0,5.82,7.55q4,2.35,10.13.52T252.41,53l6.19,7A24.52,24.52,0,0,1,253,65.63a30.23,30.23,0,0,1-10.25,5.11q-12.16,3.61-19.84-1.43T211.69,52.5q-3.49-11.76.62-21.67T228.09,17.47Zm2.23,24.13a16.85,16.85,0,0,0,5.87-4.89q2.42-3.16,1.51-6.25-1.8-6.08-7.79-4.31a10.14,10.14,0,0,0-7.26,7,21.25,21.25,0,0,0-.14,11.59A54.87,54.87,0,0,0,230.32,41.6Z"/><path class="cls-1" d="M325.22,4.17l4.13,38.47a3.43,3.43,0,0,0,.81,2.21,3,3,0,0,0,2.09.51l3.33-.15.89,8.27L320,55.25l-.64-6-.32-.07a16.44,16.44,0,0,1-13.37,9q-10.55,1.13-16.33-5t-7-17.86q-1.51-14.06,4.47-22.65T306.43,2.53A52.52,52.52,0,0,1,325.22,4.17ZM316.82,39l-2.87-26.78a19.41,19.41,0,0,0-8.11-.49q-6.93.74-9.43,6.66t-1.52,15.12q1.8,16.75,12.55,15.6a10.45,10.45,0,0,0,7.15-3.54A8.45,8.45,0,0,0,316.82,39Z"/><path class="cls-1" d="M347.43,42.06l.19-28.81a3.68,3.68,0,0,0-.56-2.35,2.84,2.84,0,0,0-2-.79l-4.37-.34.05-8.42,17.58.11-.05,7.8a16.15,16.15,0,0,1,5.87-6.67A16,16,0,0,1,373.23,0,22.12,22.12,0,0,1,383,2.35l-.1,15.5-9.68.67,0-4.78q0-2.08-1-2.61a6.8,6.8,0,0,0-2.8-.54,8.73,8.73,0,0,0-6.83,2.92,10.89,10.89,0,0,0-2.7,7.52l-.16,24.13,9,.47-.05,8.22-27.87-.18.05-7.9,3.43-.29a4.1,4.1,0,0,0,2.29-.87A3.44,3.44,0,0,0,347.43,42.06Z"/><path class="cls-1" d="M418.27,3.07q7.77.69,12,4.87t3.62,11a16.12,16.12,0,0,1-8,12.86,25.68,25.68,0,0,1-7.33,2.59,54.81,54.81,0,0,1-15.83.69,13.8,13.8,0,0,0,2.64,9.16q2.81,3.64,9.23,4.21t13.25-3.42l3.2,8.74A24.48,24.48,0,0,1,423.69,57a30.2,30.2,0,0,1-11.41,1q-12.64-1.12-17.93-8.63t-4.21-19.74q1.08-12.22,8.55-19.92T418.27,3.07Zm-6.81,23.25a16.83,16.83,0,0,0,7.26-2.39q3.42-2,3.7-5.26.56-6.32-5.66-6.87a10.14,10.14,0,0,0-9.32,3.82,21.24,21.24,0,0,0-4.39,10.73A54.66,54.66,0,0,0,411.47,26.33Z"/><path class="cls-1" d="M493.56,68.91l1.79-7.7q-7.41,6.61-18.25,4.09-15.7-3.65-11.63-21.17l4.73-20.36q.64-2.74-1.87-3.42l-3.2-1,1.93-8.31,17.83,4.14L478.14,44.3q-1.25,5.37-.36,8.46t5.65,4.19a10.51,10.51,0,0,0,8.33-1.16,10,10,0,0,0,4.53-6.42L500.54,31a3.89,3.89,0,0,0,0-2.51,2.55,2.55,0,0,0-1.82-1.12l-3.2-1,1.93-8.31,17.83,4.14-11.38,49Q501,83.56,493.81,87.86t-19.25,1.51q-12-2.79-17.92-7.68l3.27-14.08L469.72,69,468.6,73.9a3.73,3.73,0,0,0,1.67,4.29A20.86,20.86,0,0,0,477,80.77Q490.1,83.8,493.56,68.91Z"/><path class="cls-1" d="M520.65,50.86A35.62,35.62,0,0,1,527.24,39a20.43,20.43,0,0,1,8.67-6.16,26.33,26.33,0,0,1,17.27.12,24.71,24.71,0,0,1,9.29,5.41A21.55,21.55,0,0,1,567.29,45a21.55,21.55,0,0,1,1.37,8.64,37.06,37.06,0,0,1-2.33,11.8Q561.57,79,552.55,83.68t-19.28,1.05Q523,81.13,519.56,72.47T520.65,50.86ZM537,76.36q10.69,3.76,16.77-13.51,3.07-8.73,2.25-14.09t-6.46-7.34q-5.64-2-9.81,1.4T533,53.66q-4.86,13.84-1,19.16A10.12,10.12,0,0,0,537,76.36Z"/><path class="cls-1" d="M613.78,109.15l-3.56,7.41L595,109.27l2.93-6.09q-8.67,4.84-18.7,0-14.54-7-6.75-23.2l10.4-21.66q1.22-2.53-1.08-3.75L578.91,53l3.69-7.69,16.5,7.92L584.84,82.92q-2.39,5-2.19,8.18t4.6,5.32a10.51,10.51,0,0,0,8.38.68,10,10,0,0,0,5.82-5.28L610.94,72a3.67,3.67,0,0,0,.5-2.36A2.83,2.83,0,0,0,610,68.09L607,66.46l3.69-7.69,16.5,7.92-17.64,36.75a3.44,3.44,0,0,0-.5,2.24,3.46,3.46,0,0,0,1.54,1.6Z"/><path class="cls-1" d="M625.73,112.52l14.82-24.7a3.68,3.68,0,0,0,.71-2.3,2.83,2.83,0,0,0-1.34-1.71l-3.58-2.52,4.33-7.22,15.07,9-4,6.69A16.15,16.15,0,0,1,660.18,87a16,16,0,0,1,9.17,2.41,22.11,22.11,0,0,1,7.25,7l-8,13.29L660,105.4l2.46-4.1q1.07-1.78.45-2.77a6.81,6.81,0,0,0-2.14-1.89,8.73,8.73,0,0,0-7.37-1,10.88,10.88,0,0,0-6.15,5.1l-12.41,20.69,7.54,5-4.23,7-23.9-14.34,4.07-6.78,3.1,1.5a4.1,4.1,0,0,0,2.42.42Q624.77,114.13,625.73,112.52Z"/><path class="cls-1" d="M687.7,159.81l59.78-82.15q2.39-3.29-1.08-6l-4.8-3.93,8.64-11.88,25.19,18.33-24.68,33.92q10.81-1.32,21.69,6.59,13.45,9.79,14.71,24.61t-10.72,31.27q-30.1,41.36-64.73,16.16a91.33,91.33,0,0,1-14.37-13.19Q690.4,165.72,687.7,159.81ZM738,125.52l-27,37.07a33,33,0,0,0,10.51,12Q737.9,186.49,757.17,160q17.6-24.18,1.57-35.85a17.65,17.65,0,0,0-11.2-3.55A11.58,11.58,0,0,0,738,125.52Z"/><path class="cls-1" d="M783.14,181.79q7-11.07,15.44-17.15t16.72-6.91a44.84,44.84,0,0,1,28.6,6.77q9,5.67,13.34,12.52a36.64,36.64,0,0,1,5.47,12.88q1.1,6-1,14.86a63.1,63.1,0,0,1-8.36,18.69q-13.05,20.65-29.79,24.93t-32.37-5.6q-15.64-9.88-18.08-25.56T783.14,181.79Zm17.48,48.53q16.31,10.31,33-16,8.42-13.31,9.1-22.52t-7.92-14.64q-8.6-5.44-16.8-1.41t-15.39,15.4q-13.33,21.09-9,31.4A17.24,17.24,0,0,0,800.63,230.32Z"/><path class="cls-1" d="M871,203.28l4.56-13.41,28.32,9.63-3.7,10.89a32.24,32.24,0,0,1,14.9-5.87,36.27,36.27,0,0,1,16.81,1.7q12.73,4.33,17.21,14t-.48,24.23l-14.87,43.74,9.38,3.75-4.56,13.41-39.88-13.56L903,279l5.7,1.38a7,7,0,0,0,4.17-.17q1.54-.69,2.57-3.71L927.21,242q3.13-9.22,1.79-14.63t-9.3-8.12q-8-2.71-14.36.73a17.8,17.8,0,0,0-8.74,10.3l-13.79,40.55,9.38,3.75L887.64,288l-39.88-13.56,4.33-12.74,5.7,1.38a7,7,0,0,0,4.17-.17q1.54-.69,2.57-3.71l15.78-46.42q1.71-5-2.42-6.62Z"/><path class="cls-1" d="M1011.63,219.65q13.24,1,20.54,8t6.45,18.66a27.42,27.42,0,0,1-13.33,22.1,43.73,43.73,0,0,1-12.4,4.6A93.33,93.33,0,0,1,986,274.57q-.15,9.4,4.72,15.52t15.82,6.92q10.94.8,22.46-6.17l5.66,14.79q-3.77,2.92-12.39,5.66a51.4,51.4,0,0,1-19.4,2Q981.3,311.67,972.12,299t-7.67-33.48q1.52-20.83,14-34.11T1011.63,219.65Zm-11,39.75a28.68,28.68,0,0,0,12.29-4.25q5.76-3.57,6.16-9,.79-10.77-9.81-11.54-9.89-.72-15.75,6.75a36.16,36.16,0,0,0-7.2,18.38A93.31,93.31,0,0,0,1000.66,259.4Z"/><path class="cls-1" d="M1093,233.25a29.32,29.32,0,0,0-10.36-.72q-6,.51-9.38,3.55a8.18,8.18,0,0,0-3,7,12.08,12.08,0,0,0,1.85,6.06,10.92,10.92,0,0,0,4.47,3.44,53.34,53.34,0,0,0,10.92,3.07q6.31,1.15,9.4,1.86a54.37,54.37,0,0,1,7.77,2.63,22.38,22.38,0,0,1,7.21,4.36q6.73,6,7.6,16.23,1.13,13.23-7.85,21.54t-23.79,9.58q-21.52,1.83-32.92-2.7l-2.09-24.51,15.77-2.59.72,8.46q.66,7.76,15.48,6.5t13.9-12a8.48,8.48,0,0,0-3.1-6.13,14.52,14.52,0,0,0-5.31-2.92q-2.55-.67-6.06-1.26t-6.85-1.19a65.93,65.93,0,0,1-7.26-1.78,54.2,54.2,0,0,1-8.75-3.61q-9.49-5.05-10.65-18.72t7.91-21.9q9.07-8.23,23.79-9.49a66.26,66.26,0,0,1,29.79,4.57l1.8,21.16-15.77,2.58-.63-7.41A5.94,5.94,0,0,0,1093,233.25Z"/><path class="cls-1" d="M1150.56,304.15q-6.11,1-10-1.82a12.38,12.38,0,0,1-4.81-8.34,12.81,12.81,0,0,1,1.88-9.65q2.8-4.15,8.65-5.13a13,13,0,0,1,9.91,1.84,12,12,0,0,1,5,8.32,13,13,0,0,1-1.79,9.63Q1156.67,303.12,1150.56,304.15Z"/></g></g></svg>