<svg xmlns="http://www.w3.org/2000/svg" viewBox="0 0 40.6 45.34"><defs><style>.cls-1{fill:#d0f4df;}</style></defs><title>Asset 20</title><g id="Layer_2" data-name="Layer 2"><g id="R_Calf_Muscle" data-name="R Calf Muscle"><path class="cls-1" d="M6.82,33l4.35-22.61a2.94,2.94,0,0,0-.1-1.92A2.27,2.27,0,0,0,9.6,7.51l-3.38-.9L7.49,0,21.28,2.65,20.11,8.77a12.89,12.89,0,0,1,5.58-4.38,12.74,12.74,0,0,1,7.54-.71A17.67,17.67,0,0,1,40.6,7L38.26,19.12l-7.7-.89.72-3.75q.31-1.63-.42-2.2a5.42,5.42,0,0,0-2.13-.83,7,7,0,0,0-5.79,1.3,8.7,8.7,0,0,0-3.22,5.52L16.08,37.2l7,1.69-1.24,6.45L0,41.13l1.19-6.2,2.74.27a3.28,3.28,0,0,0,1.93-.35A2.75,2.75,0,0,0,6.82,33Z"/></g></g></svg>