<svg xmlns="http://www.w3.org/2000/svg" viewBox="0 0 108.3 111.53"><defs><style>.cls-1{fill:#d0f4df;}</style></defs><title>Asset 23</title><g id="Layer_2" data-name="Layer 2"><g id="R_Calf_Muscle" data-name="R Calf Muscle"><path class="cls-1" d="M86.11,3.84l8.05,76.59q.35,3.29,1.61,4.41t4.17,1l6.63-.28,1.73,16.47-32.74,3.44L74.31,93.55l-.64-.14Q64.93,109.31,47,111.2q-21,2.21-32.5-10.12T.58,65.49q-2.94-28,9-45.08T48.71.48Q66.2-1.36,86.11,3.84ZM69.24,73.06l-5.6-53.33q-6-2.07-16.14-1Q33.7,20.17,28.7,31.94T25.61,62q3.51,33.36,24.92,31.11,9.06-1,14.25-7T69.24,73.06Z"/></g></g></svg>