<svg xmlns="http://www.w3.org/2000/svg" viewBox="0 0 172.66 149.73"><defs><style>.cls-1{fill:#d0f4df;}</style></defs><title>Asset 26</title><g id="Layer_2" data-name="Layer 2"><g id="R_Calf_Muscle" data-name="R Calf Muscle"><path class="cls-1" d="M25.36,16l5-16L63.76,10.47l-4,12.84Q75.75,11,95,17t21,24q16-12.33,35-6.39Q165.24,39,170.25,50.05t-.38,28.2L153.7,129.81l11.07,4.12-5,15.8L112.8,135l4.71-15,6.7,1.45a7.61,7.61,0,0,0,4.77-.35q1.68-.88,2.94-4.18L144.75,76q3.41-10.86,2.58-16.88t-9.91-8.86q-9.09-2.85-15.66,1.16t-9.49,13.3L97.4,112.15l10.68,4-5,15.8L56.5,117.33l4.71-15,6.71,1.45a8.18,8.18,0,0,0,4.87-.32q1.78-.85,2.9-4.41L88.45,58.35Q91.85,47.49,91,41.48T81,32.59Q71.83,29.71,65.29,34a22.61,22.61,0,0,0-9.2,12.74l-15,47.8,10.48,3.94-5,15.8L0,99.61l4.71-15,6.7,1.45a8.18,8.18,0,0,0,4.87-.32q1.78-.85,2.9-4.41l.2.06,17.1-54.52q1.05-3.36.37-5T33.47,19.2Z"/></g></g></svg>