<svg xmlns="http://www.w3.org/2000/svg" viewBox="0 0 143.17 162.69"><defs><style>.cls-1{fill:#d0f4df;}</style></defs><title>Asset 27</title><g id="Layer_2" data-name="Layer 2"><g id="R_Calf_Muscle" data-name="R Calf Muscle"><path class="cls-1" d="M77.56,124.8l7.37-13.9q-17.63,8.93-37.2-1.45-28.35-15-11.57-46.68L55.67,26q2.62-4.94-1.86-7.55L48.16,15l8-15L88.3,17.07,60.46,69.57q-5.14,9.7-5,16.09t8.72,11q8.59,4.56,16.62,2a19.92,19.92,0,0,0,12-10l17.56-33.1q1.65-3.11,1.27-4.83t-2.94-3.08L103,44.1l8-15,32.19,17.07-47,88.52q-11.74,22.13-27.87,26.7t-37.81-6.93Q8.87,143,0,130.53l13.48-25.42,18.15,7.75L27,121.64a7.43,7.43,0,0,0,1,9.1q3.65,4.16,11.7,8.43Q63.3,151.69,77.56,124.8Z"/></g></g></svg>