<svg xmlns="http://www.w3.org/2000/svg" viewBox="0 0 54.82 60.98"><defs><style>.cls-1{fill:#d0f4df;}</style></defs><title>Asset 12</title><g id="Layer_2" data-name="Layer 2"><g id="R_Calf_Muscle" data-name="R Calf Muscle"><path class="cls-1" d="M13.9,50.9,6.61,11.09a2.75,2.75,0,0,0-.78-1.72,2.38,2.38,0,0,0-1.7-.28l-2.89.36L0,2.66,14.55,0l4,22a14,14,0,0,1,10.83-8.23q6.21-1.14,10.26,1.8T45,25.6l3.91,21.34,4.7-.61,1.2,6.54L35.36,56.43l-1.14-6.21,2.65-.74a3.28,3.28,0,0,0,1.67-1,2.75,2.75,0,0,0,.21-2.11L35.67,29.51a13.23,13.23,0,0,0-2.55-6.29q-1.77-2-5.65-1.33a8.38,8.38,0,0,0-5.77,3.55,8.24,8.24,0,0,0-1.26,6.27l3.62,19.78,4.71-.61L30,57.42,10.51,61,9.37,54.77,12,54a3.29,3.29,0,0,0,1.67-1A2.75,2.75,0,0,0,13.9,50.9Z"/></g></g></svg>