<svg xmlns="http://www.w3.org/2000/svg" viewBox="0 0 25.25 60.36"><defs><style>.cls-1{fill:#d0f4df;}</style></defs><title>Asset 13</title><g id="Layer_2" data-name="Layer 2"><g id="R_Calf_Muscle" data-name="R Calf Muscle"><path class="cls-1" d="M14.73,16.87,19.6,51.43,24.32,51l.93,6.58L5.66,60.36l-.88-6.25,2.68-.63a2.39,2.39,0,0,0,2-3L6.26,27.63a2.92,2.92,0,0,0-.72-1.83,2.14,2.14,0,0,0-1.67-.27L1,25.78,0,18.94ZM3.36,11.21A5.83,5.83,0,0,1,1,7.13,6,6,0,0,1,6.41.08a6.25,6.25,0,0,1,4.82,1.13,6,6,0,0,1,2.39,4.15,5.76,5.76,0,0,1-1.16,4.57,6.41,6.41,0,0,1-4.33,2.33A6.26,6.26,0,0,1,3.36,11.21Z"/></g></g></svg>