<svg xmlns="http://www.w3.org/2000/svg" viewBox="0 0 21.72 59.99"><defs><style>.cls-1{fill:#d0f4df;}</style></defs><title>Asset 15</title><g id="Layer_2" data-name="Layer 2"><g id="R_Calf_Muscle" data-name="R Calf Muscle"><path class="cls-1" d="M14.86,17.47l1.78,34.86h4.74L21.72,59,2,60l-.32-6.31,2.73-.39a2.39,2.39,0,0,0,2.27-2.78L5.46,27.44a2.92,2.92,0,0,0-.55-1.89,2.14,2.14,0,0,0-1.64-.42l-2.91,0L0,18.23ZM4,10.83a5.83,5.83,0,0,1-2-4.27A6,6,0,0,1,8.06,0a6.25,6.25,0,0,1,4.7,1.55,6,6,0,0,1,2,4.35,5.76,5.76,0,0,1-1.56,4.45A6.41,6.41,0,0,1,8.68,12.3,6.26,6.26,0,0,1,4,10.83Z"/></g></g></svg>