<svg xmlns="http://www.w3.org/2000/svg" viewBox="0 0 38.62 44.19"><defs><style>.cls-1{fill:#d0f4df;}</style></defs><title>Asset 18</title><g id="Layer_2" data-name="Layer 2"><g id="R_Calf_Muscle" data-name="R Calf Muscle"><path class="cls-1" d="M.19,20.26A28.43,28.43,0,0,1,3,9.8,16.32,16.32,0,0,1,8.54,3.35,21,21,0,0,1,21.95.1,19.76,19.76,0,0,1,30.2,2.5a17.2,17.2,0,0,1,5,4.23A17.22,17.22,0,0,1,38,13.16a29.6,29.6,0,0,1,.48,9.6q-1.07,11.42-7.16,16.78a18.73,18.73,0,0,1-14.74,4.55q-8.65-.81-13-6.85T.19,20.26ZM17.84,36.86q9,.84,10.38-13.72.69-7.36-1-11.36a7.11,7.11,0,0,0-6.43-4.44,7.64,7.64,0,0,0-7.33,3Q10.9,13.76,10.32,20q-1.09,11.67,2.93,15A8.09,8.09,0,0,0,17.84,36.86Z"/></g></g></svg>