<svg xmlns="http://www.w3.org/2000/svg" viewBox="0 0 1243.57 344.39"><defs><style>.cls-1{fill:#0c3548;}</style></defs><title>Asset 30</title><g id="Layer_2" data-name="Layer 2"><g id="R_Calf_Muscle" data-name="R Calf Muscle">
<path id="lines organ-lines" class="cls-1" d="M13.32,257.77l24.43-40.41-6.94-4.2q-2-1.24-3.72,1.52l-2.53,4.18-8.7-6.11L25,197.63l46.55,28.14L62.41,240.9,53,236l2.53-4.18a4.46,4.46,0,0,0,.85-2.4q-.07-.89-1.76-1.92l-6.05-3.66L22.8,266.42l6.87,4.52L25.1,278.5,0,263.33l4.36-7.21,4.88,2.58Q12,260,13.32,257.77Z"/>
<path id="lines organ-lines" class="cls-1" d="M55.71,281.82l20.53-46.3a3.44,3.44,0,0,0,.4-2.32,3,3,0,0,0-1.56-1.49L71.84,230l3.5-7.89,16.92,7.5L80.93,255.23q8.06-4.84,17-.88,7.22,3.2,9.34,9.09t-1.56,14.16l-11,24.81L100,305.1l-3.37,7.61L74,302.67l3.2-7.23,3.26,1.11a4.1,4.1,0,0,0,2.45.12,3.44,3.44,0,0,0,1.7-2l8.68-19.58q2.19-4.94,1.8-8.3t-4.9-5.36a10.49,10.49,0,0,0-8.47-.4,10.31,10.31,0,0,0-5.72,5.6l-10.2,23,5.29,2.69-3.37,7.61-22.63-10,3.2-7.23,3.26,1.11a4.11,4.11,0,0,0,2.45.12A3.45,3.45,0,0,0,55.71,281.82Z"/>
<path id="lines organ-lines" class="cls-1" d="M148.29,272.47q7.46,2.28,10.73,7.25t1.26,11.53a16.12,16.12,0,0,1-10.51,10.93,25.65,25.65,0,0,1-7.71,1,54.81,54.81,0,0,1-15.63-2.6,13.8,13.8,0,0,0,.69,9.51q2,4.14,8.16,6t13.67-.61l1.32,9.21a24.52,24.52,0,0,1-7.84,1.63A30.21,30.21,0,0,1,131.06,325q-12.14-3.71-15.75-12.15t0-20.18q3.58-11.73,12.48-17.72T148.29,272.47Zm-11.47,21.35a16.86,16.86,0,0,0,7.59-.83q3.77-1.3,4.71-4.38,1.85-6.07-4.12-7.89a10.14,10.14,0,0,0-9.91,1.81,21.25,21.25,0,0,0-6.52,9.59A54.86,54.86,0,0,0,136.82,293.82Z"/>
<path id="lines organ-lines" class="cls-1" d="M195.61,293.28a17.21,17.21,0,0,0-5.75-2.05,9.17,9.17,0,0,0-5.87.52,4.81,4.81,0,0,0-2.83,3.48,7.09,7.09,0,0,0,.08,3.72,6.4,6.4,0,0,0,2,2.65,31.27,31.27,0,0,0,5.69,3.47q3.39,1.65,5,2.55a32,32,0,0,1,4,2.72A13.17,13.17,0,0,1,201.3,314,13.8,13.8,0,0,1,203,324.34q-1.46,7.66-7.86,10.94t-15,1.64q-12.46-2.38-18.19-6.75L164.7,316l9.33,1-.94,4.9q-.86,4.5,7.72,6.13t9.77-4.59a5,5,0,0,0-.78-4,8.54,8.54,0,0,0-2.54-2.5q-1.33-.78-3.23-1.67t-3.69-1.76a38.63,38.63,0,0,1-3.82-2.16,32,32,0,0,1-4.37-3.43q-4.57-4.37-3.06-12.28T177,284.55q6.44-3.22,15-1.59a38.93,38.93,0,0,1,16.13,7.31l-2.34,12.26-9.33-1,.82-4.29A3.49,3.49,0,0,0,195.61,293.28Z"/>
<path id="lines organ-lines" class="cls-1" d="M241.73,289.31q7.78.61,12,4.76t3.72,11A16.11,16.11,0,0,1,249.58,318a25.67,25.67,0,0,1-7.3,2.66,54.84,54.84,0,0,1-15.82.84,13.8,13.8,0,0,0,2.72,9.13q2.84,3.62,9.27,4.12t13.22-3.55l3.28,8.71a24.47,24.47,0,0,1-7.3,3.28,30.22,30.22,0,0,1-11.4,1.08q-12.65-1-18-8.46t-4.39-19.7q1-12.23,8.36-20T241.73,289.31Zm-6.59,23.32a16.86,16.86,0,0,0,7.24-2.45q3.4-2.08,3.65-5.29.5-6.32-5.72-6.81A10.14,10.14,0,0,0,231,302a21.24,21.24,0,0,0-4.29,10.77A54.83,54.83,0,0,0,235.14,312.63Z"/>
<path id="lines organ-lines" class="cls-1" d="M332,290.27l3.49,38.53a3.43,3.43,0,0,0,.78,2.23,3,3,0,0,0,2.09.54l3.33-.09.75,8.29L326,341.25l-.54-6-.32-.08a16.44,16.44,0,0,1-13.51,8.74q-10.56,1-16.25-5.32t-6.75-18q-1.28-14.08,4.85-22.58t19.79-9.73A52.51,52.51,0,0,1,332,290.27Zm-9,34.65-2.43-26.83a19.43,19.43,0,0,0-8.1-.62q-6.94.63-9.54,6.5t-1.77,15.09q1.52,16.78,12.29,15.8a10.45,10.45,0,0,0,7.21-3.42A8.45,8.45,0,0,0,323,324.91Z"/>
<path id="lines organ-lines" class="cls-1" d="M357.62,325l-5.84-28.21a3.68,3.68,0,0,0-1-2.17,2.83,2.83,0,0,0-2.14-.35l-4.34.58-1.71-8.25L359.76,283l1.58,7.64a16.14,16.14,0,0,1,4.34-7.75,16,16,0,0,1,8.37-4.44,22.12,22.12,0,0,1,10.09.25l3.14,15.17L378,296.57l-1-4.68q-.42-2-1.55-2.33a6.8,6.8,0,0,0-2.86.06,8.72,8.72,0,0,0-6.07,4.28,10.88,10.88,0,0,0-1.07,7.92l4.89,23.63,8.94-1.43,1.67,8-27.29,5.65-1.6-7.74,3.3-1a4.11,4.11,0,0,0,2.06-1.33A3.45,3.45,0,0,0,357.62,325Z"/>
<path id="lines organ-lines" class="cls-1" d="M413.74,267.39q7.45-2.32,12.95-.05t7.54,8.82a16.12,16.12,0,0,1-2.54,14.95,25.69,25.69,0,0,1-5.8,5.18,54.81,54.81,0,0,1-14.38,6.65,13.8,13.8,0,0,0,5.92,7.47q4,2.3,10.14.39t11-8.2l6.28,6.87a24.51,24.51,0,0,1-5.56,5.76,30.24,30.24,0,0,1-10.19,5.24q-12.12,3.77-19.86-1.17T397.8,302.63q-3.64-11.72.34-21.67T413.74,267.39Zm2.54,24.1a16.86,16.86,0,0,0,5.81-5q2.38-3.19,1.43-6.27-1.88-6.06-7.84-4.21a10.14,10.14,0,0,0-7.17,7.08,21.25,21.25,0,0,0,0,11.6A55,55,0,0,0,416.28,291.49Z"/>
<path id="lines organ-lines" class="cls-1" d="M511.61,283.83l-3.33-7.17q-1.77,9.77-11.86,14.46-14.62,6.79-22.2-9.53l-8.81-19q-1.18-2.55-3.58-1.55l-3.11,1.21-3.59-7.73,16.6-7.71,12.57,27.07q2.32,5,4.92,6.89t7-.17a10.51,10.51,0,0,0,5.85-6,10,10,0,0,0-.38-7.85l-7.93-17.07a3.89,3.89,0,0,0-1.55-2,2.55,2.55,0,0,0-2.12.24L487,249.16l-3.59-7.73,16.6-7.71,21.21,45.65q5.3,11.41,2.24,19.26t-14.24,13q-11.18,5.19-18.85,5l-6.09-13.11,8.61-4.92,2.1,4.53a3.73,3.73,0,0,0,4,2.35,20.86,20.86,0,0,0,6.92-2.13Q518.05,297.7,511.61,283.83Z"/>
<path id="lines organ-lines" class="cls-1" d="M521.94,251.74A35.59,35.59,0,0,1,517.27,239a20.44,20.44,0,0,1,1-10.59,26.35,26.35,0,0,1,11.36-13,24.72,24.72,0,0,1,10.16-3.5,18.23,18.23,0,0,1,15.64,5.29,37.06,37.06,0,0,1,7.42,9.47Q570,239.11,567.63,249t-11.78,15.29q-9.42,5.42-18.24,2.39T521.94,251.74ZM552,256q9.83-5.65.7-21.52-4.61-8-9.21-10.9t-9.78.1q-5.19,3-5.34,8.35t3.79,12.22q7.31,12.71,13.86,13.26A10.12,10.12,0,0,0,552,256Z"/>
<path id="lines organ-lines" class="cls-1" d="M624.82,208.69l4.54,6.85-14,9.32-3.74-5.63q-.28,9.92-9.55,16.08-13.43,8.91-23.38-6.08l-13.28-20q-1.55-2.34-3.78-1l-2.89,1.67L554,202.77l15.25-10.12,18.23,27.47q3,4.59,5.9,6.07T600.3,225a10.51,10.51,0,0,0,4.88-6.85,10,10,0,0,0-1.56-7.71l-12.13-18.28a3.69,3.69,0,0,0-1.77-1.63,2.84,2.84,0,0,0-2.12.47l-2.89,1.67L580,185.52l15.25-10.12,22.54,34q.92,1.39,1.67,1.58a3.46,3.46,0,0,0,2.16-.5Z"/>
<path id="lines organ-lines" class="cls-1" d="M633.57,198.33,618,174.09a3.67,3.67,0,0,0-1.75-1.66,2.83,2.83,0,0,0-2.13.44l-3.84,2.1-4.55-7.09,14.79-9.5,4.21,6.56a16.14,16.14,0,0,1,1.28-8.79,16,16,0,0,1,6.22-7.15,22.11,22.11,0,0,1,9.51-3.39l8.37,13-7.75,5.84-2.58-4q-1.12-1.75-2.28-1.63a6.8,6.8,0,0,0-2.64,1.08,8.73,8.73,0,0,0-4.13,6.17,10.88,10.88,0,0,0,1.84,7.78l13,20.3,7.84-4.54,4.44,6.91-23.45,15.06L630.17,205l2.72-2.12a4.11,4.11,0,0,0,1.45-2A3.44,3.44,0,0,0,633.57,198.33Z"/>
<path id="lines organ-lines" class="cls-1" d="M677.82,131.31q-6-11.64-7-22t2.52-17.92a44.84,44.84,0,0,1,20.33-21.22q9.44-4.86,17.55-5.16a36.61,36.61,0,0,1,13.88,1.81q5.76,2.11,12.29,8.4A63.05,63.05,0,0,1,749.3,91.89q11.19,21.71,6.4,38.32t-21.23,25.07q-16.44,8.47-31.2,2.63T677.82,131.31Zm50.7,9.52q17.15-8.83,2.88-36.53-7.21-14-14.8-19.26T700,84.45q-9.05,4.66-9.73,13.77t5.48,21.07q11.43,22.19,22.53,23.64A17.23,17.23,0,0,0,728.52,140.83Z"/>
<path id="lines organ-lines" class="cls-1" d="M783.3,107.42,766.82,61.25a6.26,6.26,0,0,0-2.26-3.42,4.82,4.82,0,0,0-3.7-.09l-7.18,2-4.82-13.5L777,36.17l4.46,12.5A27.47,27.47,0,0,1,787,34.59a27.14,27.14,0,0,1,13.07-9.46,37.63,37.63,0,0,1,17.06-2L826,48l-15.09,6.7-2.74-7.67Q807,43.72,805,43.48a11.55,11.55,0,0,0-4.8.77A14.85,14.85,0,0,0,791,52.9a18.53,18.53,0,0,0,.06,13.6l13.8,38.67,14.74-4.51,4.7,13.17-44.68,15.95-4.52-12.67,5.32-2.46a7,7,0,0,0,3.16-2.73Q784.37,110.42,783.3,107.42Z"/>
<path id="lines organ-lines" class="cls-1" d="M925.08,120.5q-8.12,10.66-28.55,14T863.62,134l-4-24.28L876,105.59l1.38,8.38a6.35,6.35,0,0,0,5.41,5.66q4.64.94,12.32-.32,11.18-1.83,14.62-9.3t1.43-19.7l-1.58-9.61Q902.81,91.87,888,94.31a35.35,35.35,0,0,1-16.56-.87,27.3,27.3,0,0,1-12.29-7.67Q849.66,75.12,847,59q-3.75-22.88,6.71-36.71t31.08-17.2A82.81,82.81,0,0,1,918.19,6.3l10.63,64.8q2.43,14.85,2.77,19.1Q933.2,109.85,925.08,120.5ZM905.86,58,899.7,20.45a43.58,43.58,0,0,0-14.32.2q-10.66,1.75-15,10.54t-2.18,22.24Q872.69,81,890.85,78a18.5,18.5,0,0,0,11.9-6.71Q907.15,65.87,905.86,58Z"/>
<path id="lines organ-lines" class="cls-1" d="M1030,8.21l-4,65.73q-.17,2.83.74,3.95a5.06,5.06,0,0,0,3.37,1.44l5.63.69-.85,14.13-28.09-1.69.62-10.25-.52-.21q-9.6,12.19-25,11.27-18-1.08-26-13.09t-6.77-32q1.44-24,13.91-36.75T998.88.14A89.4,89.4,0,0,1,1030,8.21Zm-23.94,56,2.75-45.76q-4.81-2.59-13.47-3.11-11.84-.71-17.71,8.51t-6.82,24.95q-1.72,28.62,16.65,29.73,7.77.47,13-3.92A14.39,14.39,0,0,0,1006,64.23Z"/>
<path id="lines organ-lines" class="cls-1" d="M1061.13,23.1l3.76-13.65,28.84,7.95-3.06,11.09a32.26,32.26,0,0,1,14.53-6.74,36.3,36.3,0,0,1,16.88.71q13,3.57,18,12.95t.94,24.22l-12.27,44.54,9.59,3.19L1134.57,121,1094,109.82l3.57-13,5.77,1a7,7,0,0,0,4.15-.42q1.5-.78,2.35-3.85l9.69-35.15q2.59-9.38.93-14.71t-9.76-7.56q-8.11-2.23-14.29,1.57a17.8,17.8,0,0,0-8.12,10.8l-11.38,41.29,9.58,3.19-3.76,13.65-40.61-11.19,3.57-13,5.77,1a7,7,0,0,0,4.15-.42q1.5-.78,2.35-3.85l13-47.27q1.41-5.12-2.81-6.47Z"/>
<path id="lines organ-lines" class="cls-1" d="M1214.52,74.36a29.29,29.29,0,0,0-8.77-5.58q-5.51-2.41-9.94-1.36a8.18,8.18,0,0,0-6,4.71,12.08,12.08,0,0,0-1.27,6.21,10.92,10.92,0,0,0,2.28,5.15,53.28,53.28,0,0,0,8.13,7.91q5,4,7.37,6.12a54.29,54.29,0,0,1,5.58,6,22.41,22.41,0,0,1,4.25,7.27q3,8.48-1.07,17.89-5.32,12.16-17.18,15.18T1172.43,141q-19.78-8.66-27.63-18.09l9.87-22.54,15.09,5.25-3.41,7.78q-3.12,7.14,10.5,13.1t18-3.93a8.48,8.48,0,0,0,.2-6.87,14.52,14.52,0,0,0-3.27-5.1q-1.92-1.8-4.72-4t-5.45-4.32a66.08,66.08,0,0,1-5.53-5,54.31,54.31,0,0,1-6-7.34q-5.93-9-.43-21.54T1187,52.86q11.9-2.91,25.44,3a66.27,66.27,0,0,1,24,18.23l-8.52,19.46-15.09-5.25,3-6.81A5.94,5.94,0,0,0,1214.52,74.36Z"/>
<path id="lines organ-lines" class="cls-1" d="M1224.53,166.5q-5.49-2.88-6.85-7.5a12.38,12.38,0,0,1,1.22-9.55,12.82,12.82,0,0,1,7.34-6.54q4.74-1.6,10,1.15a13,13,0,0,1,6.78,7.46,12,12,0,0,1-1.07,9.64,13,13,0,0,1-7.26,6.58Q1230,169.38,1224.53,166.5Z"/></g></g></svg>